<?xml version="1.0" standalone="no"?>
<!DOCTYPE svg PUBLIC "-//W3C//DTD SVG 20010904//EN"
 "http://www.w3.org/TR/2001/REC-SVG-20010904/DTD/svg10.dtd">
<svg version="1.0" xmlns="http://www.w3.org/2000/svg"
 width="512.000000pt" height="512.000000pt" viewBox="0 0 512.000000 512.000000"
 preserveAspectRatio="xMidYMid meet">
<metadata>
Created by potrace 1.14, written by Peter Selinger 2001-2017
</metadata>
<g transform="translate(0.000000,512.000000) scale(0.100000,-0.100000)"
fill="#000000" stroke="none">
<path d="M2560 4872 c-19 -2 -82 -15 -140 -28 -58 -14 -112 -27 -120 -29 -14
-3 -175 -42 -212 -51 -10 -2 -26 -6 -35 -8 -10 -2 -58 -14 -108 -26 -49 -13
-97 -24 -105 -25 -8 -1 -22 -5 -30 -8 -8 -3 -29 -8 -47 -11 -17 -2 -36 -7 -41
-10 -4 -3 -19 -7 -33 -10 -21 -4 -75 -16 -141 -32 -10 -2 -26 -6 -36 -8 -9 -2
-35 -9 -57 -14 -22 -6 -51 -13 -65 -16 -40 -8 -164 -38 -180 -44 -8 -3 -24 -7
-35 -9 -11 -1 -87 -19 -170 -39 -82 -20 -154 -37 -160 -38 -5 -1 -16 -5 -22
-9 -7 -5 -13 -6 -13 -4 0 15 -263 -63 -318 -94 -65 -37 -169 -139 -194 -190
-33 -67 -47 -104 -55 -139 -14 -69 -6 -264 13 -320 6 -17 9 -29 23 -115 9 -52
21 -121 46 -255 30 -164 37 -197 39 -215 4 -23 24 -128 31 -165 3 -14 8 -41
11 -60 3 -19 7 -42 10 -49 3 -8 7 -35 10 -60 3 -25 7 -48 9 -51 2 -3 6 -26 10
-50 8 -50 13 -75 15 -75 1 0 3 -15 6 -34 2 -19 6 -44 8 -55 20 -95 38 -194 41
-211 1 -11 5 -35 9 -53 5 -19 9 -43 10 -55 2 -12 10 -60 19 -107 9 -47 28
-144 41 -217 39 -206 67 -254 223 -390 33 -29 74 -65 91 -81 17 -16 61 -55 97
-88 37 -32 77 -68 89 -79 12 -11 55 -49 95 -85 41 -36 79 -70 85 -75 6 -6 74
-67 151 -135 77 -69 160 -143 185 -166 40 -36 71 -65 155 -139 13 -11 60 -54
105 -95 46 -41 92 -83 104 -93 12 -10 50 -44 86 -77 171 -155 278 -203 440
-199 119 3 231 42 325 114 34 26 130 101 270 211 17 13 76 59 133 103 56 44
117 91 135 105 39 32 41 34 92 71 22 17 45 35 51 40 6 6 26 21 44 35 18 14 70
54 116 90 45 36 124 97 174 135 51 39 97 75 103 81 11 9 68 53 192 148 22 17
42 34 45 37 3 3 43 34 90 69 94 71 182 158 174 171 -3 5 -2 9 3 9 8 0 21 26
43 85 10 27 22 80 36 155 2 14 11 61 20 105 8 43 17 93 20 110 2 16 8 53 13
80 22 113 42 216 47 250 3 17 12 62 20 102 7 39 17 88 20 109 3 20 8 46 10 58
2 11 7 35 9 51 3 17 14 75 25 130 10 55 21 116 25 135 3 19 17 94 30 165 14
72 27 144 29 162 3 18 7 40 10 50 3 10 7 34 10 53 3 19 7 44 10 55 2 11 13 70
25 130 11 61 24 128 28 150 10 51 9 219 -1 265 -18 78 -82 187 -145 247 -82
78 -153 111 -354 163 -167 43 -597 158 -637 170 -19 6 -87 24 -150 41 -63 17
-173 46 -245 65 -71 20 -161 43 -200 54 -38 10 -82 23 -97 29 -16 6 -28 9 -28
7 0 -2 -24 2 -52 10 -29 8 -78 22 -108 30 -30 9 -62 17 -70 19 -8 1 -35 8 -59
15 -64 17 -130 26 -171 22z"/>
</g>
</svg>
