{
	"asset":{
		"generator":"Khronos glTF Blender I/O v3.5.30",
		"version":"2.0"
	},
	"extensionsUsed":[
		"KHR_materials_clearcoat",
		"KHR_materials_specular",
		"KHR_materials_ior"
	],
	"scene":0,
	"scenes":[
		{
			"name":"Scene",
			"nodes":[
				1
			]
		}
	],
	"nodes":[
		{
			"mesh":0,
			"name":"Cube.003"
		},
		{
			"children":[
				0
			],
			"mesh":1,
			"name":"Cube.001"
		}
	],
	"materials":[
		{
			"doubleSided":true,
			"extensions":{
				"KHR_materials_clearcoat":{
					"clearcoatFactor":0.37037035822868347,
					"clearcoatRoughnessFactor":0.29851850867271423
				},
				"KHR_materials_specular":{
					"specularColorFactor":[
						0,
						0,
						0
					]
				},
				"KHR_materials_ior":{
					"ior":1.4500000476837158
				}
			},
			"name":"Material.006",
			"pbrMetallicRoughness":{
				"baseColorTexture":{
					"index":0
				},
				"metallicFactor":0
			}
		},
		{
			"doubleSided":true,
			"extensions":{
				"KHR_materials_clearcoat":{
					"clearcoatFactor":0.4198929965496063,
					"clearcoatRoughnessFactor":0.9467504620552063
				},
				"KHR_materials_specular":{
					"specularColorFactor":[
						1.089107688406775,
						1.089107688406775,
						1.089107688406775
					]
				},
				"KHR_materials_ior":{
					"ior":1.4500000476837158
				}
			},
			"name":"Material.007",
			"pbrMetallicRoughness":{
				"baseColorTexture":{
					"index":1
				},
				"metallicFactor":0,
				"roughnessFactor":0.4903636574745178
			}
		}
	],
	"meshes":[
		{
			"name":"Cube.003",
			"primitives":[
				{
					"attributes":{
						"POSITION":0,
						"TEXCOORD_0":1,
						"NORMAL":2
					},
					"indices":3,
					"material":0
				}
			]
		},
		{
			"name":"Cube.001",
			"primitives":[
				{
					"attributes":{
						"POSITION":4,
						"TEXCOORD_0":5,
						"NORMAL":6
					},
					"indices":7,
					"material":1
				}
			]
		}
	],
	"textures":[
		{
			"sampler":0,
			"source":0
		},
		{
			"sampler":0,
			"source":1
		}
	],
	"images":[
		{
			"bufferView":4,
			"mimeType":"image/jpeg",
			"name":"pillow floral pattern"
		},
		{
			"bufferView":9,
			"mimeType":"image/jpeg",
			"name":"Wood10"
		}
	],
	"accessors":[
		{
			"bufferView":0,
			"componentType":5126,
			"count":1355,
			"max":[
				1.3536336421966553,
				4.285381317138672,
				1
			],
			"min":[
				-1.3536336421966553,
				0.9750245809555054,
				-1.868406891822815
			],
			"type":"VEC3"
		},
		{
			"bufferView":1,
			"componentType":5126,
			"count":1355,
			"type":"VEC2"
		},
		{
			"bufferView":2,
			"componentType":5126,
			"count":1355,
			"type":"VEC3"
		},
		{
			"bufferView":3,
			"componentType":5123,
			"count":3918,
			"type":"SCALAR"
		},
		{
			"bufferView":5,
			"componentType":5126,
			"count":2507,
			"max":[
				1.1020869016647339,
				0.9790245890617371,
				0.8884828090667725
			],
			"min":[
				0.7458214163780212,
				0,
				-1.025531530380249
			],
			"type":"VEC3"
		},
		{
			"bufferView":6,
			"componentType":5126,
			"count":2507,
			"type":"VEC2"
		},
		{
			"bufferView":7,
			"componentType":5126,
			"count":2507,
			"type":"VEC3"
		},
		{
			"bufferView":8,
			"componentType":5123,
			"count":11484,
			"type":"SCALAR"
		}
	],
	"bufferViews":[
		{
			"buffer":0,
			"byteLength":16260,
			"byteOffset":0,
			"target":34962
		},
		{
			"buffer":0,
			"byteLength":10840,
			"byteOffset":16260,
			"target":34962
		},
		{
			"buffer":0,
			"byteLength":16260,
			"byteOffset":27100,
			"target":34962
		},
		{
			"buffer":0,
			"byteLength":7836,
			"byteOffset":43360,
			"target":34963
		},
		{
			"buffer":0,
			"byteLength":143267,
			"byteOffset":51196
		},
		{
			"buffer":0,
			"byteLength":30084,
			"byteOffset":194464,
			"target":34962
		},
		{
			"buffer":0,
			"byteLength":20056,
			"byteOffset":224548,
			"target":34962
		},
		{
			"buffer":0,
			"byteLength":30084,
			"byteOffset":244604,
			"target":34962
		},
		{
			"buffer":0,
			"byteLength":22968,
			"byteOffset":274688,
			"target":34963
		},
		{
			"buffer":0,
			"byteLength":46596,
			"byteOffset":297656
		}
	],
	"samplers":[
		{
			"magFilter":9729,
			"minFilter":9987
		}
	],
	"buffers":[
		{
			"byteLength":344252,
			"uri":"data:application/octet-stream;base64,"
		}
	]
}
