{
	"asset":{
		"generator":"Khronos glTF Blender I/O v3.5.30",
		"version":"2.0"
	},
	"extensionsUsed":[
		"KHR_materials_clearcoat",
		"KHR_materials_specular",
		"KHR_materials_ior"
	],
	"scene":0,
	"scenes":[
		{
			"name":"Scene",
			"nodes":[
				1
			]
		}
	],
	"nodes":[
		{
			"mesh":0,
			"name":"Cube.003"
		},
		{
			"children":[
				0
			],
			"mesh":1,
			"name":"Cube.001"
		}
	],
	"materials":[
		{
			"doubleSided":true,
			"extensions":{
				"KHR_materials_clearcoat":{
					"clearcoatFactor":0.37037035822868347,
					"clearcoatRoughnessFactor":0.29851850867271423
				},
				"KHR_materials_specular":{
					"specularColorFactor":[
						0,
						0,
						0
					]
				},
				"KHR_materials_ior":{
					"ior":1.4500000476837158
				}
			},
			"name":"Material.006",
			"pbrMetallicRoughness":{
				"baseColorTexture":{
					"index":0
				},
				"metallicFactor":0
			}
		},
		{
			"doubleSided":true,
			"extensions":{
				"KHR_materials_clearcoat":{
					"clearcoatFactor":0.4198929965496063,
					"clearcoatRoughnessFactor":0.9467504620552063
				},
				"KHR_materials_specular":{
					"specularColorFactor":[
						1.089107688406775,
						1.089107688406775,
						1.089107688406775
					]
				},
				"KHR_materials_ior":{
					"ior":1.4500000476837158
				}
			},
			"name":"Material.007",
			"pbrMetallicRoughness":{
				"baseColorTexture":{
					"index":1
				},
				"metallicFactor":0,
				"roughnessFactor":0.4903636574745178
			}
		}
	],
	"meshes":[
		{
			"name":"Cube.003",
			"primitives":[
				{
					"attributes":{
						"POSITION":0,
						"TEXCOORD_0":1,
						"NORMAL":2
					},
					"indices":3,
					"material":0
				}
			]
		},
		{
			"name":"Cube.001",
			"primitives":[
				{
					"attributes":{
						"POSITION":4,
						"TEXCOORD_0":5,
						"NORMAL":6
					},
					"indices":7,
					"material":1
				}
			]
		}
	],
	"textures":[
		{
			"sampler":0,
			"source":0
		},
		{
			"sampler":0,
			"source":1
		}
	],
	"images":[
		{
			"bufferView":4,
			"mimeType":"image/png",
			"name":"ModifiedPurpleFlowerTextile"
		},
		{
			"bufferView":9,
			"mimeType":"image/jpeg",
			"name":"Wood10"
		}
	],
	"accessors":[
		{
			"bufferView":0,
			"componentType":5126,
			"count":12899,
			"max":[
				1.3419537544250488,
				4.28538179397583,
				1.0000001192092896
			],
			"min":[
				-1.3419537544250488,
				0.9750244617462158,
				-1.7798056602478027
			],
			"type":"VEC3"
		},
		{
			"bufferView":1,
			"componentType":5126,
			"count":12899,
			"type":"VEC2"
		},
		{
			"bufferView":2,
			"componentType":5126,
			"count":12899,
			"type":"VEC3"
		},
		{
			"bufferView":3,
			"componentType":5123,
			"count":63312,
			"type":"SCALAR"
		},
		{
			"bufferView":5,
			"componentType":5126,
			"count":5008,
			"max":[
				1.1020869016647339,
				0.9790245890617371,
				0.8884828090667725
			],
			"min":[
				-1.1020869016647339,
				0,
				-1.025531530380249
			],
			"type":"VEC3"
		},
		{
			"bufferView":6,
			"componentType":5126,
			"count":5008,
			"type":"VEC2"
		},
		{
			"bufferView":7,
			"componentType":5126,
			"count":5008,
			"type":"VEC3"
		},
		{
			"bufferView":8,
			"componentType":5123,
			"count":22968,
			"type":"SCALAR"
		}
	],
	"bufferViews":[
		{
			"buffer":0,
			"byteLength":154788,
			"byteOffset":0,
			"target":34962
		},
		{
			"buffer":0,
			"byteLength":103192,
			"byteOffset":154788,
			"target":34962
		},
		{
			"buffer":0,
			"byteLength":154788,
			"byteOffset":257980,
			"target":34962
		},
		{
			"buffer":0,
			"byteLength":126624,
			"byteOffset":412768,
			"target":34963
		},
		{
			"buffer":0,
			"byteLength":989209,
			"byteOffset":539392
		},
		{
			"buffer":0,
			"byteLength":60096,
			"byteOffset":1528604,
			"target":34962
		},
		{
			"buffer":0,
			"byteLength":40064,
			"byteOffset":1588700,
			"target":34962
		},
		{
			"buffer":0,
			"byteLength":60096,
			"byteOffset":1628764,
			"target":34962
		},
		{
			"buffer":0,
			"byteLength":45936,
			"byteOffset":1688860,
			"target":34963
		},
		{
			"buffer":0,
			"byteLength":46596,
			"byteOffset":1734796
		}
	],
	"samplers":[
		{
			"magFilter":9729,
			"minFilter":9987
		}
	],
	"buffers":[
		{
			"byteLength":1781392,
			"uri":"data:application/octet-stream;base64,"
		}
	]
}
