{
	"asset":{
		"generator":"Khronos glTF Blender I/O v3.5.30",
		"version":"2.0"
	},
	"extensionsUsed":[
		"KHR_materials_clearcoat"
	],
	"scene":0,
	"scenes":[
		{
			"name":"Scene",
			"nodes":[
				8
			]
		}
	],
	"nodes":[
		{
			"mesh":0,
			"name":"Draw_Bottom",
			"translation":[
				0,
				0,
				0.27966073155403137
			]
		},
		{
			"mesh":1,
			"name":"Draw_Centre"
		},
		{
			"mesh":2,
			"name":"Draw_Left_Bottom"
		},
		{
			"mesh":3,
			"name":"Draw_Left_Top"
		},
		{
			"mesh":4,
			"name":"Draw_Mid"
		},
		{
			"mesh":5,
			"name":"Draw_Right_Bottom",
			"translation":[
				0,
				0,
				0.08562462031841278
			]
		},
		{
			"mesh":6,
			"name":"Draw_Right_Top"
		},
		{
			"mesh":7,
			"name":"Draw_Top",
			"translation":[
				0,
				0,
				0.16651509702205658
			]
		},
		{
			"children":[
				0,
				1,
				2,
				3,
				4,
				5,
				6,
				7
			],
			"mesh":8,
			"name":"Body"
		}
	],
	"materials":[
		{
			"doubleSided":true,
			"extensions":{
				"KHR_materials_clearcoat":{
					"clearcoatFactor":0.6499999761581421,
					"clearcoatRoughnessFactor":0.05000000074505806
				}
			},
			"name":"Wood",
			"pbrMetallicRoughness":{
				"baseColorTexture":{
					"index":0
				},
				"metallicFactor":0,
				"roughnessFactor":0.20000000298023224
			}
		},
		{
			"doubleSided":true,
			"name":"DrawBottom",
			"pbrMetallicRoughness":{
				"baseColorFactor":[
					0.7912980914115906,
					0.34191450476646423,
					0.19806931912899017,
					1
				],
				"metallicFactor":0,
				"roughnessFactor":0.5
			}
		},
		{
			"doubleSided":true,
			"extensions":{
				"KHR_materials_clearcoat":{
					"clearcoatFactor":0.6499999761581421,
					"clearcoatRoughnessFactor":0.05000000074505806
				}
			},
			"name":"WoodGold",
			"pbrMetallicRoughness":{
				"baseColorTexture":{
					"index":1
				},
				"metallicFactor":0,
				"roughnessFactor":0.20000000298023224
			}
		}
	],
	"meshes":[
		{
			"name":"Plane.005",
			"primitives":[
				{
					"attributes":{
						"POSITION":0,
						"TEXCOORD_0":1,
						"NORMAL":2
					},
					"indices":3,
					"material":0
				},
				{
					"attributes":{
						"POSITION":4,
						"TEXCOORD_0":5,
						"NORMAL":6
					},
					"indices":7,
					"material":1
				}
			]
		},
		{
			"name":"Plane.015",
			"primitives":[
				{
					"attributes":{
						"POSITION":8,
						"TEXCOORD_0":9,
						"NORMAL":10
					},
					"indices":11,
					"material":0
				},
				{
					"attributes":{
						"POSITION":12,
						"TEXCOORD_0":13,
						"NORMAL":14
					},
					"indices":15,
					"material":1
				},
				{
					"attributes":{
						"POSITION":16,
						"TEXCOORD_0":17,
						"NORMAL":18
					},
					"indices":19,
					"material":2
				}
			]
		},
		{
			"name":"Plane.014",
			"primitives":[
				{
					"attributes":{
						"POSITION":20,
						"TEXCOORD_0":21,
						"NORMAL":22
					},
					"indices":23,
					"material":0
				},
				{
					"attributes":{
						"POSITION":24,
						"TEXCOORD_0":25,
						"NORMAL":26
					},
					"indices":27,
					"material":1
				}
			]
		},
		{
			"name":"Plane.013",
			"primitives":[
				{
					"attributes":{
						"POSITION":28,
						"TEXCOORD_0":29,
						"NORMAL":30
					},
					"indices":31,
					"material":0
				},
				{
					"attributes":{
						"POSITION":32,
						"TEXCOORD_0":33,
						"NORMAL":34
					},
					"indices":27,
					"material":1
				}
			]
		},
		{
			"name":"Plane.003",
			"primitives":[
				{
					"attributes":{
						"POSITION":35,
						"TEXCOORD_0":36,
						"NORMAL":37
					},
					"indices":38,
					"material":0
				},
				{
					"attributes":{
						"POSITION":39,
						"TEXCOORD_0":40,
						"NORMAL":41
					},
					"indices":15,
					"material":1
				}
			]
		},
		{
			"name":"Plane.011",
			"primitives":[
				{
					"attributes":{
						"POSITION":42,
						"TEXCOORD_0":43,
						"NORMAL":44
					},
					"indices":45,
					"material":0
				},
				{
					"attributes":{
						"POSITION":46,
						"TEXCOORD_0":47,
						"NORMAL":48
					},
					"indices":49,
					"material":1
				}
			]
		},
		{
			"name":"Plane.012",
			"primitives":[
				{
					"attributes":{
						"POSITION":50,
						"TEXCOORD_0":51,
						"NORMAL":52
					},
					"indices":53,
					"material":0
				},
				{
					"attributes":{
						"POSITION":54,
						"TEXCOORD_0":55,
						"NORMAL":56
					},
					"indices":57,
					"material":1
				}
			]
		},
		{
			"name":"Plane.004",
			"primitives":[
				{
					"attributes":{
						"POSITION":58,
						"TEXCOORD_0":59,
						"NORMAL":60
					},
					"indices":61,
					"material":0
				},
				{
					"attributes":{
						"POSITION":62,
						"TEXCOORD_0":63,
						"NORMAL":64
					},
					"indices":15,
					"material":1
				}
			]
		},
		{
			"name":"Plane.007",
			"primitives":[
				{
					"attributes":{
						"POSITION":65,
						"TEXCOORD_0":66,
						"NORMAL":67
					},
					"indices":68,
					"material":0
				},
				{
					"attributes":{
						"POSITION":69,
						"TEXCOORD_0":70,
						"NORMAL":71
					},
					"indices":72,
					"material":2
				}
			]
		}
	],
	"textures":[
		{
			"sampler":0,
			"source":0
		},
		{
			"sampler":0,
			"source":1
		}
	],
	"images":[
		{
			"bufferView":4,
			"mimeType":"image/jpeg",
			"name":"WoodRed"
		},
		{
			"bufferView":21,
			"mimeType":"image/jpeg",
			"name":"WoodGold"
		}
	],
	"accessors":[
		{
			"bufferView":0,
			"componentType":5126,
			"count":2656,
			"max":[
				0.4740290343761444,
				0.5424999594688416,
				0.2656973600387573
			],
			"min":[
				-0.47402918338775635,
				0.3649999499320984,
				-0.16999995708465576
			],
			"type":"VEC3"
		},
		{
			"bufferView":1,
			"componentType":5126,
			"count":2656,
			"type":"VEC2"
		},
		{
			"bufferView":2,
			"componentType":5126,
			"count":2656,
			"type":"VEC3"
		},
		{
			"bufferView":3,
			"componentType":5123,
			"count":14892,
			"type":"SCALAR"
		},
		{
			"bufferView":5,
			"componentType":5126,
			"count":24,
			"max":[
				0.45102906227111816,
				0.37699994444847107,
				0.2300000637769699
			],
			"min":[
				-0.4510291814804077,
				0.3749999403953552,
				-0.15999995172023773
			],
			"type":"VEC3"
		},
		{
			"bufferView":6,
			"componentType":5126,
			"count":24,
			"type":"VEC2"
		},
		{
			"bufferView":7,
			"componentType":5126,
			"count":24,
			"type":"VEC3"
		},
		{
			"bufferView":8,
			"componentType":5123,
			"count":36,
			"type":"SCALAR"
		},
		{
			"bufferView":9,
			"componentType":5126,
			"count":1456,
			"max":[
				0.15550963580608368,
				1.125,
				0.2866138517856598
			],
			"min":[
				-0.15550971031188965,
				0.9574999213218689,
				-0.16999995708465576
			],
			"type":"VEC3"
		},
		{
			"bufferView":10,
			"componentType":5126,
			"count":1456,
			"type":"VEC2"
		},
		{
			"bufferView":11,
			"componentType":5126,
			"count":1456,
			"type":"VEC3"
		},
		{
			"bufferView":12,
			"componentType":5123,
			"count":7722,
			"type":"SCALAR"
		},
		{
			"bufferView":13,
			"componentType":5126,
			"count":24,
			"max":[
				0.13250957429409027,
				0.9694998860359192,
				0.2300000637769699
			],
			"min":[
				-0.13250967860221863,
				0.9674999117851257,
				-0.15999995172023773
			],
			"type":"VEC3"
		},
		{
			"bufferView":14,
			"componentType":5126,
			"count":24,
			"type":"VEC2"
		},
		{
			"bufferView":15,
			"componentType":5126,
			"count":24,
			"type":"VEC3"
		},
		{
			"bufferView":16,
			"componentType":5123,
			"count":36,
			"type":"SCALAR"
		},
		{
			"bufferView":17,
			"componentType":5126,
			"count":176,
			"max":[
				0.12050962448120117,
				1.090000033378601,
				0.2735000252723694
			],
			"min":[
				-0.12050971388816833,
				0.9924999475479126,
				0.27000004053115845
			],
			"type":"VEC3"
		},
		{
			"bufferView":18,
			"componentType":5126,
			"count":176,
			"type":"VEC2"
		},
		{
			"bufferView":19,
			"componentType":5126,
			"count":176,
			"type":"VEC3"
		},
		{
			"bufferView":20,
			"componentType":5123,
			"count":456,
			"type":"SCALAR"
		},
		{
			"bufferView":22,
			"componentType":5126,
			"count":1440,
			"max":[
				-0.1705096811056137,
				1.0375001430511475,
				0.265697181224823
			],
			"min":[
				-0.47402921319007874,
				0.9574999213218689,
				-0.16999995708465576
			],
			"type":"VEC3"
		},
		{
			"bufferView":23,
			"componentType":5126,
			"count":1440,
			"type":"VEC2"
		},
		{
			"bufferView":24,
			"componentType":5126,
			"count":1440,
			"type":"VEC3"
		},
		{
			"bufferView":25,
			"componentType":5123,
			"count":7698,
			"type":"SCALAR"
		},
		{
			"bufferView":26,
			"componentType":5126,
			"count":24,
			"max":[
				-0.19350969791412354,
				0.9694998860359192,
				0.2300000637769699
			],
			"min":[
				-0.4510292410850525,
				0.9674999117851257,
				-0.15999996662139893
			],
			"type":"VEC3"
		},
		{
			"bufferView":27,
			"componentType":5126,
			"count":24,
			"type":"VEC2"
		},
		{
			"bufferView":28,
			"componentType":5126,
			"count":24,
			"type":"VEC3"
		},
		{
			"bufferView":29,
			"componentType":5123,
			"count":36,
			"type":"SCALAR"
		},
		{
			"bufferView":30,
			"componentType":5126,
			"count":1440,
			"max":[
				-0.1705096960067749,
				1.125,
				0.26569730043411255
			],
			"min":[
				-0.47402921319007874,
				1.0525000095367432,
				-0.16999995708465576
			],
			"type":"VEC3"
		},
		{
			"bufferView":31,
			"componentType":5126,
			"count":1440,
			"type":"VEC2"
		},
		{
			"bufferView":32,
			"componentType":5126,
			"count":1440,
			"type":"VEC3"
		},
		{
			"bufferView":33,
			"componentType":5123,
			"count":7698,
			"type":"SCALAR"
		},
		{
			"bufferView":34,
			"componentType":5126,
			"count":24,
			"max":[
				-0.19350972771644592,
				1.0644999742507935,
				0.2300000637769699
			],
			"min":[
				-0.4510292410850525,
				1.0625,
				-0.15999995172023773
			],
			"type":"VEC3"
		},
		{
			"bufferView":35,
			"componentType":5126,
			"count":24,
			"type":"VEC2"
		},
		{
			"bufferView":36,
			"componentType":5126,
			"count":24,
			"type":"VEC3"
		},
		{
			"bufferView":37,
			"componentType":5126,
			"count":2656,
			"max":[
				0.4740290343761444,
				0.7424999475479126,
				0.26569733023643494
			],
			"min":[
				-0.47402918338775635,
				0.5574999451637268,
				-0.16999995708465576
			],
			"type":"VEC3"
		},
		{
			"bufferView":38,
			"componentType":5126,
			"count":2656,
			"type":"VEC2"
		},
		{
			"bufferView":39,
			"componentType":5126,
			"count":2656,
			"type":"VEC3"
		},
		{
			"bufferView":40,
			"componentType":5123,
			"count":14892,
			"type":"SCALAR"
		},
		{
			"bufferView":41,
			"componentType":5126,
			"count":24,
			"max":[
				0.45102906227111816,
				0.5694999098777771,
				0.2300000637769699
			],
			"min":[
				-0.4510292112827301,
				0.5674999356269836,
				-0.15999995172023773
			],
			"type":"VEC3"
		},
		{
			"bufferView":42,
			"componentType":5126,
			"count":24,
			"type":"VEC2"
		},
		{
			"bufferView":43,
			"componentType":5126,
			"count":24,
			"type":"VEC3"
		},
		{
			"bufferView":44,
			"componentType":5126,
			"count":1440,
			"max":[
				0.4740290641784668,
				1.0375001430511475,
				0.2656971514225006
			],
			"min":[
				0.17050962150096893,
				0.9574999213218689,
				-0.16999995708465576
			],
			"type":"VEC3"
		},
		{
			"bufferView":45,
			"componentType":5126,
			"count":1440,
			"type":"VEC2"
		},
		{
			"bufferView":46,
			"componentType":5126,
			"count":1440,
			"type":"VEC3"
		},
		{
			"bufferView":47,
			"componentType":5123,
			"count":7698,
			"type":"SCALAR"
		},
		{
			"bufferView":48,
			"componentType":5126,
			"count":24,
			"max":[
				0.45102909207344055,
				0.9694998860359192,
				0.2300000637769699
			],
			"min":[
				0.19350965321063995,
				0.9674999117851257,
				-0.15999995172023773
			],
			"type":"VEC3"
		},
		{
			"bufferView":49,
			"componentType":5126,
			"count":24,
			"type":"VEC2"
		},
		{
			"bufferView":50,
			"componentType":5126,
			"count":24,
			"type":"VEC3"
		},
		{
			"bufferView":51,
			"componentType":5123,
			"count":36,
			"type":"SCALAR"
		},
		{
			"bufferView":52,
			"componentType":5126,
			"count":1440,
			"max":[
				0.4740290641784668,
				1.125,
				0.2656971514225006
			],
			"min":[
				0.17050962150096893,
				1.0525000095367432,
				-0.16999995708465576
			],
			"type":"VEC3"
		},
		{
			"bufferView":53,
			"componentType":5126,
			"count":1440,
			"type":"VEC2"
		},
		{
			"bufferView":54,
			"componentType":5126,
			"count":1440,
			"type":"VEC3"
		},
		{
			"bufferView":55,
			"componentType":5123,
			"count":7698,
			"type":"SCALAR"
		},
		{
			"bufferView":56,
			"componentType":5126,
			"count":24,
			"max":[
				0.45102909207344055,
				1.0644999742507935,
				0.2300000637769699
			],
			"min":[
				0.19350963830947876,
				1.0625,
				-0.15999995172023773
			],
			"type":"VEC3"
		},
		{
			"bufferView":57,
			"componentType":5126,
			"count":24,
			"type":"VEC2"
		},
		{
			"bufferView":58,
			"componentType":5126,
			"count":24,
			"type":"VEC3"
		},
		{
			"bufferView":59,
			"componentType":5123,
			"count":36,
			"type":"SCALAR"
		},
		{
			"bufferView":60,
			"componentType":5126,
			"count":2656,
			"max":[
				0.4740290641784668,
				0.9424999356269836,
				0.2656971514225006
			],
			"min":[
				-0.47402921319007874,
				0.7574999332427979,
				-0.16999995708465576
			],
			"type":"VEC3"
		},
		{
			"bufferView":61,
			"componentType":5126,
			"count":2656,
			"type":"VEC2"
		},
		{
			"bufferView":62,
			"componentType":5126,
			"count":2656,
			"type":"VEC3"
		},
		{
			"bufferView":63,
			"componentType":5123,
			"count":14892,
			"type":"SCALAR"
		},
		{
			"bufferView":64,
			"componentType":5126,
			"count":24,
			"max":[
				0.45102906227111816,
				0.7694998979568481,
				0.2300000637769699
			],
			"min":[
				-0.4510292112827301,
				0.7674999237060547,
				-0.15999995172023773
			],
			"type":"VEC3"
		},
		{
			"bufferView":65,
			"componentType":5126,
			"count":24,
			"type":"VEC2"
		},
		{
			"bufferView":66,
			"componentType":5126,
			"count":24,
			"type":"VEC3"
		},
		{
			"bufferView":67,
			"componentType":5126,
			"count":32620,
			"max":[
				0.6009340286254883,
				1.3000000715255737,
				0.3064195513725281
			],
			"min":[
				-0.6009340286254883,
				2.2351741790771484e-08,
				-0.25
			],
			"type":"VEC3"
		},
		{
			"bufferView":68,
			"componentType":5126,
			"count":32620,
			"type":"VEC2"
		},
		{
			"bufferView":69,
			"componentType":5126,
			"count":32620,
			"type":"VEC3"
		},
		{
			"bufferView":70,
			"componentType":5123,
			"count":138168,
			"type":"SCALAR"
		},
		{
			"bufferView":71,
			"componentType":5126,
			"count":1331,
			"max":[
				0.48902907967567444,
				1.1400001049041748,
				0.2520000636577606
			],
			"min":[
				-0.4890291094779968,
				0.3500000238418579,
				0.24650005996227264
			],
			"type":"VEC3"
		},
		{
			"bufferView":72,
			"componentType":5126,
			"count":1331,
			"type":"VEC2"
		},
		{
			"bufferView":73,
			"componentType":5126,
			"count":1331,
			"type":"VEC3"
		},
		{
			"bufferView":74,
			"componentType":5123,
			"count":3498,
			"type":"SCALAR"
		}
	],
	"bufferViews":[
		{
			"buffer":0,
			"byteLength":31872,
			"byteOffset":0,
			"target":34962
		},
		{
			"buffer":0,
			"byteLength":21248,
			"byteOffset":31872,
			"target":34962
		},
		{
			"buffer":0,
			"byteLength":31872,
			"byteOffset":53120,
			"target":34962
		},
		{
			"buffer":0,
			"byteLength":29784,
			"byteOffset":84992,
			"target":34963
		},
		{
			"buffer":0,
			"byteLength":316815,
			"byteOffset":114776
		},
		{
			"buffer":0,
			"byteLength":288,
			"byteOffset":431592,
			"target":34962
		},
		{
			"buffer":0,
			"byteLength":192,
			"byteOffset":431880,
			"target":34962
		},
		{
			"buffer":0,
			"byteLength":288,
			"byteOffset":432072,
			"target":34962
		},
		{
			"buffer":0,
			"byteLength":72,
			"byteOffset":432360,
			"target":34963
		},
		{
			"buffer":0,
			"byteLength":17472,
			"byteOffset":432432,
			"target":34962
		},
		{
			"buffer":0,
			"byteLength":11648,
			"byteOffset":449904,
			"target":34962
		},
		{
			"buffer":0,
			"byteLength":17472,
			"byteOffset":461552,
			"target":34962
		},
		{
			"buffer":0,
			"byteLength":15444,
			"byteOffset":479024,
			"target":34963
		},
		{
			"buffer":0,
			"byteLength":288,
			"byteOffset":494468,
			"target":34962
		},
		{
			"buffer":0,
			"byteLength":192,
			"byteOffset":494756,
			"target":34962
		},
		{
			"buffer":0,
			"byteLength":288,
			"byteOffset":494948,
			"target":34962
		},
		{
			"buffer":0,
			"byteLength":72,
			"byteOffset":495236,
			"target":34963
		},
		{
			"buffer":0,
			"byteLength":2112,
			"byteOffset":495308,
			"target":34962
		},
		{
			"buffer":0,
			"byteLength":1408,
			"byteOffset":497420,
			"target":34962
		},
		{
			"buffer":0,
			"byteLength":2112,
			"byteOffset":498828,
			"target":34962
		},
		{
			"buffer":0,
			"byteLength":912,
			"byteOffset":500940,
			"target":34963
		},
		{
			"buffer":0,
			"byteLength":336602,
			"byteOffset":501852
		},
		{
			"buffer":0,
			"byteLength":17280,
			"byteOffset":838456,
			"target":34962
		},
		{
			"buffer":0,
			"byteLength":11520,
			"byteOffset":855736,
			"target":34962
		},
		{
			"buffer":0,
			"byteLength":17280,
			"byteOffset":867256,
			"target":34962
		},
		{
			"buffer":0,
			"byteLength":15396,
			"byteOffset":884536,
			"target":34963
		},
		{
			"buffer":0,
			"byteLength":288,
			"byteOffset":899932,
			"target":34962
		},
		{
			"buffer":0,
			"byteLength":192,
			"byteOffset":900220,
			"target":34962
		},
		{
			"buffer":0,
			"byteLength":288,
			"byteOffset":900412,
			"target":34962
		},
		{
			"buffer":0,
			"byteLength":72,
			"byteOffset":900700,
			"target":34963
		},
		{
			"buffer":0,
			"byteLength":17280,
			"byteOffset":900772,
			"target":34962
		},
		{
			"buffer":0,
			"byteLength":11520,
			"byteOffset":918052,
			"target":34962
		},
		{
			"buffer":0,
			"byteLength":17280,
			"byteOffset":929572,
			"target":34962
		},
		{
			"buffer":0,
			"byteLength":15396,
			"byteOffset":946852,
			"target":34963
		},
		{
			"buffer":0,
			"byteLength":288,
			"byteOffset":962248,
			"target":34962
		},
		{
			"buffer":0,
			"byteLength":192,
			"byteOffset":962536,
			"target":34962
		},
		{
			"buffer":0,
			"byteLength":288,
			"byteOffset":962728,
			"target":34962
		},
		{
			"buffer":0,
			"byteLength":31872,
			"byteOffset":963016,
			"target":34962
		},
		{
			"buffer":0,
			"byteLength":21248,
			"byteOffset":994888,
			"target":34962
		},
		{
			"buffer":0,
			"byteLength":31872,
			"byteOffset":1016136,
			"target":34962
		},
		{
			"buffer":0,
			"byteLength":29784,
			"byteOffset":1048008,
			"target":34963
		},
		{
			"buffer":0,
			"byteLength":288,
			"byteOffset":1077792,
			"target":34962
		},
		{
			"buffer":0,
			"byteLength":192,
			"byteOffset":1078080,
			"target":34962
		},
		{
			"buffer":0,
			"byteLength":288,
			"byteOffset":1078272,
			"target":34962
		},
		{
			"buffer":0,
			"byteLength":17280,
			"byteOffset":1078560,
			"target":34962
		},
		{
			"buffer":0,
			"byteLength":11520,
			"byteOffset":1095840,
			"target":34962
		},
		{
			"buffer":0,
			"byteLength":17280,
			"byteOffset":1107360,
			"target":34962
		},
		{
			"buffer":0,
			"byteLength":15396,
			"byteOffset":1124640,
			"target":34963
		},
		{
			"buffer":0,
			"byteLength":288,
			"byteOffset":1140036,
			"target":34962
		},
		{
			"buffer":0,
			"byteLength":192,
			"byteOffset":1140324,
			"target":34962
		},
		{
			"buffer":0,
			"byteLength":288,
			"byteOffset":1140516,
			"target":34962
		},
		{
			"buffer":0,
			"byteLength":72,
			"byteOffset":1140804,
			"target":34963
		},
		{
			"buffer":0,
			"byteLength":17280,
			"byteOffset":1140876,
			"target":34962
		},
		{
			"buffer":0,
			"byteLength":11520,
			"byteOffset":1158156,
			"target":34962
		},
		{
			"buffer":0,
			"byteLength":17280,
			"byteOffset":1169676,
			"target":34962
		},
		{
			"buffer":0,
			"byteLength":15396,
			"byteOffset":1186956,
			"target":34963
		},
		{
			"buffer":0,
			"byteLength":288,
			"byteOffset":1202352,
			"target":34962
		},
		{
			"buffer":0,
			"byteLength":192,
			"byteOffset":1202640,
			"target":34962
		},
		{
			"buffer":0,
			"byteLength":288,
			"byteOffset":1202832,
			"target":34962
		},
		{
			"buffer":0,
			"byteLength":72,
			"byteOffset":1203120,
			"target":34963
		},
		{
			"buffer":0,
			"byteLength":31872,
			"byteOffset":1203192,
			"target":34962
		},
		{
			"buffer":0,
			"byteLength":21248,
			"byteOffset":1235064,
			"target":34962
		},
		{
			"buffer":0,
			"byteLength":31872,
			"byteOffset":1256312,
			"target":34962
		},
		{
			"buffer":0,
			"byteLength":29784,
			"byteOffset":1288184,
			"target":34963
		},
		{
			"buffer":0,
			"byteLength":288,
			"byteOffset":1317968,
			"target":34962
		},
		{
			"buffer":0,
			"byteLength":192,
			"byteOffset":1318256,
			"target":34962
		},
		{
			"buffer":0,
			"byteLength":288,
			"byteOffset":1318448,
			"target":34962
		},
		{
			"buffer":0,
			"byteLength":391440,
			"byteOffset":1318736,
			"target":34962
		},
		{
			"buffer":0,
			"byteLength":260960,
			"byteOffset":1710176,
			"target":34962
		},
		{
			"buffer":0,
			"byteLength":391440,
			"byteOffset":1971136,
			"target":34962
		},
		{
			"buffer":0,
			"byteLength":276336,
			"byteOffset":2362576,
			"target":34963
		},
		{
			"buffer":0,
			"byteLength":15972,
			"byteOffset":2638912,
			"target":34962
		},
		{
			"buffer":0,
			"byteLength":10648,
			"byteOffset":2654884,
			"target":34962
		},
		{
			"buffer":0,
			"byteLength":15972,
			"byteOffset":2665532,
			"target":34962
		},
		{
			"buffer":0,
			"byteLength":6996,
			"byteOffset":2681504,
			"target":34963
		}
	],
	"samplers":[
		{
			"magFilter":9729,
			"minFilter":9987
		}
	],
	"buffers":[
		{
			"byteLength":2688500,
			"uri":"data:application/octet-stream;base64,"
		}
	]
}
