{
	"asset":{
		"generator":"Khronos glTF Blender I/O v3.5.30",
		"version":"2.0"
	},
	"scene":0,
	"scenes":[
		{
			"name":"Scene",
			"nodes":[
				0
			]
		}
	],
	"nodes":[
		{
			"mesh":0,
			"name":"Plane",
			"translation":[
				0,
				0.23057132959365845,
				0
			]
		}
	],
	"materials":[
		{
			"doubleSided":true,
			"name":"Wood",
			"pbrMetallicRoughness":{
				"baseColorTexture":{
					"index":0
				},
				"metallicFactor":0,
				"roughnessFactor":0.5
			}
		}
	],
	"meshes":[
		{
			"name":"Plane",
			"primitives":[
				{
					"attributes":{
						"POSITION":0,
						"TEXCOORD_0":1,
						"NORMAL":2
					},
					"indices":3,
					"material":0
				}
			]
		}
	],
	"textures":[
		{
			"sampler":0,
			"source":0
		}
	],
	"images":[
		{
			"bufferView":4,
			"mimeType":"image/jpeg",
			"name":"camhof3"
		}
	],
	"accessors":[
		{
			"bufferView":0,
			"componentType":5126,
			"count":22460,
			"max":[
				0.7292531132698059,
				0.5708306431770325,
				1.202130913734436
			],
			"min":[
				-0.7292531132698059,
				-0.23088382184505463,
				-1.202130913734436
			],
			"type":"VEC3"
		},
		{
			"bufferView":1,
			"componentType":5126,
			"count":22460,
			"type":"VEC2"
		},
		{
			"bufferView":2,
			"componentType":5126,
			"count":22460,
			"type":"VEC3"
		},
		{
			"bufferView":3,
			"componentType":5123,
			"count":102612,
			"type":"SCALAR"
		}
	],
	"bufferViews":[
		{
			"buffer":0,
			"byteLength":269520,
			"byteOffset":0,
			"target":34962
		},
		{
			"buffer":0,
			"byteLength":179680,
			"byteOffset":269520,
			"target":34962
		},
		{
			"buffer":0,
			"byteLength":269520,
			"byteOffset":449200,
			"target":34962
		},
		{
			"buffer":0,
			"byteLength":205224,
			"byteOffset":718720,
			"target":34963
		},
		{
			"buffer":0,
			"byteLength":637847,
			"byteOffset":923944
		}
	],
	"samplers":[
		{
			"magFilter":9729,
			"minFilter":9987
		}
	],
	"buffers":[
		{
			"byteLength":1561792,
			"uri":"data:application/octet-stream;base64,"
		}
	]
}
