{
	"asset":{
		"generator":"Khronos glTF Blender I/O v3.5.30",
		"version":"2.0"
	},
	"scene":0,
	"scenes":[
		{
			"name":"Scene",
			"nodes":[
				4
			]
		}
	],
	"nodes":[
		{
			"mesh":0,
			"name":"Plane.005",
			"rotation":[
				0,
				0.8533604145050049,
				0,
				0.5213214159011841
			],
			"translation":[
				-0.34999987483024597,
				0.9346413612365723,
				0.2550000846385956
			]
		},
		{
			"mesh":1,
			"name":"Plane.006",
			"rotation":[
				0,
				-1,
				0,
				1.9470718370939721e-07
			],
			"translation":[
				0,
				0,
				0.09754663705825806
			]
		},
		{
			"mesh":2,
			"name":"Plane.007",
			"rotation":[
				0,
				-1,
				0,
				1.9470718370939721e-07
			]
		},
		{
			"mesh":3,
			"name":"Plane.009",
			"rotation":[
				0,
				-1,
				0,
				1.9470718370939721e-07
			]
		},
		{
			"children":[
				0,
				1,
				2,
				3
			],
			"mesh":4,
			"name":"Plane"
		}
	],
	"materials":[
		{
			"doubleSided":true,
			"name":"SideWoood",
			"pbrMetallicRoughness":{
				"baseColorTexture":{
					"index":0
				},
				"metallicFactor":0,
				"roughnessFactor":0.5
			}
		},
		{
			"doubleSided":true,
			"name":"Material",
			"pbrMetallicRoughness":{
				"baseColorFactor":[
					0.3266106843948364,
					0.20083558559417725,
					0.08273384720087051,
					1
				],
				"roughnessFactor":0.2058819979429245
			}
		}
	],
	"meshes":[
		{
			"name":"Plane.008",
			"primitives":[
				{
					"attributes":{
						"POSITION":0,
						"TEXCOORD_0":1,
						"NORMAL":2
					},
					"indices":3,
					"material":0
				},
				{
					"attributes":{
						"POSITION":4,
						"TEXCOORD_0":5,
						"NORMAL":6
					},
					"indices":7,
					"material":1
				}
			]
		},
		{
			"name":"Plane.009",
			"primitives":[
				{
					"attributes":{
						"POSITION":8,
						"TEXCOORD_0":9,
						"NORMAL":10
					},
					"indices":11,
					"material":0
				},
				{
					"attributes":{
						"POSITION":12,
						"TEXCOORD_0":13,
						"NORMAL":14
					},
					"indices":15,
					"material":1
				}
			]
		},
		{
			"name":"Plane.010",
			"primitives":[
				{
					"attributes":{
						"POSITION":16,
						"TEXCOORD_0":17,
						"NORMAL":18
					},
					"indices":19,
					"material":0
				},
				{
					"attributes":{
						"POSITION":20,
						"TEXCOORD_0":21,
						"NORMAL":22
					},
					"indices":23,
					"material":1
				}
			]
		},
		{
			"name":"Plane.014",
			"primitives":[
				{
					"attributes":{
						"POSITION":24,
						"TEXCOORD_0":25,
						"NORMAL":26
					},
					"indices":27,
					"material":0
				},
				{
					"attributes":{
						"POSITION":28,
						"TEXCOORD_0":29,
						"NORMAL":30
					},
					"indices":31,
					"material":1
				}
			]
		},
		{
			"name":"Plane",
			"primitives":[
				{
					"attributes":{
						"POSITION":32,
						"TEXCOORD_0":33,
						"NORMAL":34
					},
					"indices":35,
					"material":0
				}
			]
		}
	],
	"textures":[
		{
			"sampler":0,
			"source":0
		}
	],
	"images":[
		{
			"bufferView":4,
			"mimeType":"image/jpeg",
			"name":"Wood10"
		}
	],
	"accessors":[
		{
			"bufferView":0,
			"componentType":5126,
			"count":128,
			"max":[
				0,
				0.125,
				0.01000000536441803
			],
			"min":[
				-0.23333331942558289,
				-0.125,
				-0.018284261226654053
			],
			"type":"VEC3"
		},
		{
			"bufferView":1,
			"componentType":5126,
			"count":128,
			"type":"VEC2"
		},
		{
			"bufferView":2,
			"componentType":5126,
			"count":128,
			"type":"VEC3"
		},
		{
			"bufferView":3,
			"componentType":5123,
			"count":276,
			"type":"SCALAR"
		},
		{
			"bufferView":5,
			"componentType":5126,
			"count":426,
			"max":[
				-0.0995955765247345,
				0.017071068286895752,
				-2.9802322387695312e-08
			],
			"min":[
				-0.1337377279996872,
				-0.017071068286895752,
				-0.030553758144378662
			],
			"type":"VEC3"
		},
		{
			"bufferView":6,
			"componentType":5126,
			"count":426,
			"type":"VEC2"
		},
		{
			"bufferView":7,
			"componentType":5126,
			"count":426,
			"type":"VEC3"
		},
		{
			"bufferView":8,
			"componentType":5123,
			"count":2454,
			"type":"SCALAR"
		},
		{
			"bufferView":9,
			"componentType":5126,
			"count":188,
			"max":[
				0.11666664481163025,
				0.9346413016319275,
				-0.023208677768707275
			],
			"min":[
				-0.11666667461395264,
				0.8096413612365723,
				-0.2732842266559601
			],
			"type":"VEC3"
		},
		{
			"bufferView":10,
			"componentType":5126,
			"count":188,
			"type":"VEC2"
		},
		{
			"bufferView":11,
			"componentType":5126,
			"count":188,
			"type":"VEC3"
		},
		{
			"bufferView":12,
			"componentType":5123,
			"count":366,
			"type":"SCALAR"
		},
		{
			"bufferView":13,
			"componentType":5126,
			"count":555,
			"max":[
				0.017071068286895752,
				0.8892123699188232,
				-0.25499996542930603
			],
			"min":[
				-0.017071068286895752,
				0.8550702333450317,
				-0.2855537235736847
			],
			"type":"VEC3"
		},
		{
			"bufferView":14,
			"componentType":5126,
			"count":555,
			"type":"VEC2"
		},
		{
			"bufferView":15,
			"componentType":5126,
			"count":555,
			"type":"VEC3"
		},
		{
			"bufferView":16,
			"componentType":5123,
			"count":2448,
			"type":"SCALAR"
		},
		{
			"bufferView":17,
			"componentType":5126,
			"count":180,
			"max":[
				0.11666665226221085,
				1.0596412420272827,
				-0.023208677768707275
			],
			"min":[
				-0.11666665971279144,
				0.9346413016319275,
				-0.2732842266559601
			],
			"type":"VEC3"
		},
		{
			"bufferView":18,
			"componentType":5126,
			"count":180,
			"type":"VEC2"
		},
		{
			"bufferView":19,
			"componentType":5126,
			"count":180,
			"type":"VEC3"
		},
		{
			"bufferView":20,
			"componentType":5123,
			"count":366,
			"type":"SCALAR"
		},
		{
			"bufferView":21,
			"componentType":5126,
			"count":562,
			"max":[
				0.017071112990379333,
				1.0142123699188232,
				-0.25499996542930603
			],
			"min":[
				-0.017071038484573364,
				0.9800702333450317,
				-0.2855537235736847
			],
			"type":"VEC3"
		},
		{
			"bufferView":22,
			"componentType":5126,
			"count":562,
			"type":"VEC2"
		},
		{
			"bufferView":23,
			"componentType":5126,
			"count":562,
			"type":"VEC3"
		},
		{
			"bufferView":24,
			"componentType":5123,
			"count":2454,
			"type":"SCALAR"
		},
		{
			"bufferView":25,
			"componentType":5126,
			"count":128,
			"max":[
				-0.11666664481163025,
				1.0596413612365723,
				-0.244999960064888
			],
			"min":[
				-0.34999996423721313,
				0.8096413612365723,
				-0.2732842266559601
			],
			"type":"VEC3"
		},
		{
			"bufferView":26,
			"componentType":5126,
			"count":128,
			"type":"VEC2"
		},
		{
			"bufferView":27,
			"componentType":5126,
			"count":128,
			"type":"VEC3"
		},
		{
			"bufferView":28,
			"componentType":5123,
			"count":276,
			"type":"SCALAR"
		},
		{
			"bufferView":29,
			"componentType":5126,
			"count":425,
			"max":[
				-0.21626220643520355,
				0.9517123699188232,
				-0.25499996542930603
			],
			"min":[
				-0.25040435791015625,
				0.9175702333450317,
				-0.2855537235736847
			],
			"type":"VEC3"
		},
		{
			"bufferView":30,
			"componentType":5126,
			"count":425,
			"type":"VEC2"
		},
		{
			"bufferView":31,
			"componentType":5126,
			"count":425,
			"type":"VEC3"
		},
		{
			"bufferView":32,
			"componentType":5123,
			"count":2448,
			"type":"SCALAR"
		},
		{
			"bufferView":33,
			"componentType":5126,
			"count":10468,
			"max":[
				0.5200001001358032,
				1.1471363306045532,
				0.2950001657009125
			],
			"min":[
				-0.5200001001358032,
				0,
				-0.2950001657009125
			],
			"type":"VEC3"
		},
		{
			"bufferView":34,
			"componentType":5126,
			"count":10468,
			"type":"VEC2"
		},
		{
			"bufferView":35,
			"componentType":5126,
			"count":10468,
			"type":"VEC3"
		},
		{
			"bufferView":36,
			"componentType":5123,
			"count":55176,
			"type":"SCALAR"
		}
	],
	"bufferViews":[
		{
			"buffer":0,
			"byteLength":1536,
			"byteOffset":0,
			"target":34962
		},
		{
			"buffer":0,
			"byteLength":1024,
			"byteOffset":1536,
			"target":34962
		},
		{
			"buffer":0,
			"byteLength":1536,
			"byteOffset":2560,
			"target":34962
		},
		{
			"buffer":0,
			"byteLength":552,
			"byteOffset":4096,
			"target":34963
		},
		{
			"buffer":0,
			"byteLength":46596,
			"byteOffset":4648
		},
		{
			"buffer":0,
			"byteLength":5112,
			"byteOffset":51244,
			"target":34962
		},
		{
			"buffer":0,
			"byteLength":3408,
			"byteOffset":56356,
			"target":34962
		},
		{
			"buffer":0,
			"byteLength":5112,
			"byteOffset":59764,
			"target":34962
		},
		{
			"buffer":0,
			"byteLength":4908,
			"byteOffset":64876,
			"target":34963
		},
		{
			"buffer":0,
			"byteLength":2256,
			"byteOffset":69784,
			"target":34962
		},
		{
			"buffer":0,
			"byteLength":1504,
			"byteOffset":72040,
			"target":34962
		},
		{
			"buffer":0,
			"byteLength":2256,
			"byteOffset":73544,
			"target":34962
		},
		{
			"buffer":0,
			"byteLength":732,
			"byteOffset":75800,
			"target":34963
		},
		{
			"buffer":0,
			"byteLength":6660,
			"byteOffset":76532,
			"target":34962
		},
		{
			"buffer":0,
			"byteLength":4440,
			"byteOffset":83192,
			"target":34962
		},
		{
			"buffer":0,
			"byteLength":6660,
			"byteOffset":87632,
			"target":34962
		},
		{
			"buffer":0,
			"byteLength":4896,
			"byteOffset":94292,
			"target":34963
		},
		{
			"buffer":0,
			"byteLength":2160,
			"byteOffset":99188,
			"target":34962
		},
		{
			"buffer":0,
			"byteLength":1440,
			"byteOffset":101348,
			"target":34962
		},
		{
			"buffer":0,
			"byteLength":2160,
			"byteOffset":102788,
			"target":34962
		},
		{
			"buffer":0,
			"byteLength":732,
			"byteOffset":104948,
			"target":34963
		},
		{
			"buffer":0,
			"byteLength":6744,
			"byteOffset":105680,
			"target":34962
		},
		{
			"buffer":0,
			"byteLength":4496,
			"byteOffset":112424,
			"target":34962
		},
		{
			"buffer":0,
			"byteLength":6744,
			"byteOffset":116920,
			"target":34962
		},
		{
			"buffer":0,
			"byteLength":4908,
			"byteOffset":123664,
			"target":34963
		},
		{
			"buffer":0,
			"byteLength":1536,
			"byteOffset":128572,
			"target":34962
		},
		{
			"buffer":0,
			"byteLength":1024,
			"byteOffset":130108,
			"target":34962
		},
		{
			"buffer":0,
			"byteLength":1536,
			"byteOffset":131132,
			"target":34962
		},
		{
			"buffer":0,
			"byteLength":552,
			"byteOffset":132668,
			"target":34963
		},
		{
			"buffer":0,
			"byteLength":5100,
			"byteOffset":133220,
			"target":34962
		},
		{
			"buffer":0,
			"byteLength":3400,
			"byteOffset":138320,
			"target":34962
		},
		{
			"buffer":0,
			"byteLength":5100,
			"byteOffset":141720,
			"target":34962
		},
		{
			"buffer":0,
			"byteLength":4896,
			"byteOffset":146820,
			"target":34963
		},
		{
			"buffer":0,
			"byteLength":125616,
			"byteOffset":151716,
			"target":34962
		},
		{
			"buffer":0,
			"byteLength":83744,
			"byteOffset":277332,
			"target":34962
		},
		{
			"buffer":0,
			"byteLength":125616,
			"byteOffset":361076,
			"target":34962
		},
		{
			"buffer":0,
			"byteLength":110352,
			"byteOffset":486692,
			"target":34963
		}
	],
	"samplers":[
		{
			"magFilter":9729,
			"minFilter":9987
		}
	],
	"buffers":[
		{
			"byteLength":597044,
			"uri":"data:application/octet-stream;base64,"
		}
	]
}
