<?xml version="1.0" encoding="UTF-8" standalone="no"?>
<svg
   width="7.9375mm"
   height="7.9375mm"
   viewBox="0 0 7.9375 7.9375"
   version="1.1"
   id="svg8"
   inkscape:version="1.0.2 (e86c870879, 2021-01-15, custom)"
   sodipodi:docname="default.svg"
   xml:space="preserve"
   xmlns:inkscape="http://www.inkscape.org/namespaces/inkscape"
   xmlns:sodipodi="http://sodipodi.sourceforge.net/DTD/sodipodi-0.dtd"
   xmlns="http://www.w3.org/2000/svg"
   xmlns:svg="http://www.w3.org/2000/svg"
   xmlns:rdf="http://www.w3.org/1999/02/22-rdf-syntax-ns#"
   xmlns:cc="http://creativecommons.org/ns#"
   xmlns:dc="http://purl.org/dc/elements/1.1/"><defs
     id="defs2" /><sodipodi:namedview
     id="base"
     pagecolor="#ffffff"
     bordercolor="#666666"
     borderopacity="1.0"
     inkscape:pageopacity="0.0"
     inkscape:pageshadow="2"
     inkscape:zoom="0.7"
     inkscape:cx="491.72469"
     inkscape:cy="569.69419"
     inkscape:document-units="px"
     inkscape:current-layer="layer1"
     inkscape:document-rotation="0"
     showgrid="false"
     inkscape:window-width="1920"
     inkscape:window-height="1017"
     inkscape:window-x="-8"
     inkscape:window-y="-8"
     inkscape:window-maximized="1"
     inkscape:showpageshadow="2"
     inkscape:pagecheckerboard="0"
     inkscape:deskcolor="#d1d1d1" /><metadata
     id="metadata5"><rdf:RDF><cc:Work
         rdf:about=""><dc:format>image/svg+xml</dc:format><dc:type
           rdf:resource="http://purl.org/dc/dcmitype/StillImage" /><dc:title /></cc:Work></rdf:RDF></metadata><g
     inkscape:label="Layer 1"
     inkscape:groupmode="layer"
     id="layer1"
     transform="translate(-15.166315,-18.568079)"><rect
       style="fill:none;stroke:none;stroke-width:1.41918;stroke-linecap:round;stroke-linejoin:round;stroke-dasharray:none;paint-order:stroke fill markers"
       id="rect5"
       width="7.9375"
       height="7.9375"
       x="15.166314"
       y="18.568079"
       rx="0"
       ry="0" /><path
       id="rect1"
       style="color:#000000;fill:#999999;stroke-width:0.394598;stroke-linecap:round;stroke-linejoin:round;-inkscape-stroke:none"
       d="m 18.4855,18.885753 c -0.49452,0 -0.90771,0.363084 -0.99367,0.83523 h -0.25918 c -0.55648,0 -1.0104,0.459528 -1.0104,1.017123 v 4.432475 c 0,0.557594 0.45392,1.017326 1.0104,1.017326 h 3.80483 c 0.55649,0 1.01039,-0.459732 1.01039,-1.017326 v -4.432475 c 0,-0.557595 -0.4539,-1.017123 -1.01039,-1.017123 h -0.25917 c -0.086,-0.472146 -0.49916,-0.83523 -0.99367,-0.83523 z m 0,0.552402 h 1.29914 c 0.25695,0 0.45778,0.200778 0.45778,0.46472 v 0.256319 c 0,0.263942 -0.20083,0.46472 -0.45778,0.46472 H 18.4855 c -0.25696,0 -0.45799,-0.200778 -0.45799,-0.46472 v -0.256319 c 0,-0.263942 0.20103,-0.46472 0.45799,-0.46472 z m 2.30504,0.370511 c 1.9e-4,0.002 2.3e-4,0.0041 3.9e-4,0.0061 -1.7e-4,-0.002 -2.1e-4,-0.0041 -3.9e-4,-0.0061 z m -3.55789,0.46472 h 0.24898 c 0.057,0.504708 0.48595,0.903135 1.00387,0.903135 h 1.29914 c 0.51791,0 0.94667,-0.39843 1.00366,-0.903135 h 0.24918 c 0.25696,0 0.45779,0.200778 0.45779,0.46472 v 4.432475 c 0,0.263941 -0.20083,0.46472 -0.45779,0.46472 h -3.80483 c -0.25695,0 -0.45799,-0.200779 -0.45799,-0.46472 v -4.432475 c 0,-0.263942 0.20104,-0.46472 0.45799,-0.46472 z" /></g></svg>
