<?xml version="1.0" encoding="UTF-8" standalone="no"?>
<svg
   width="86.571571mm"
   height="51.556705mm"
   viewBox="0 0 86.571572 51.556705"
   version="1.1"
   id="svg8"
   inkscape:version="1.0.2 (e86c870879, 2021-01-15, custom)"
   sodipodi:docname="Languages.svg"
   xml:space="preserve"
   xmlns:inkscape="http://www.inkscape.org/namespaces/inkscape"
   xmlns:sodipodi="http://sodipodi.sourceforge.net/DTD/sodipodi-0.dtd"
   xmlns="http://www.w3.org/2000/svg"
   xmlns:svg="http://www.w3.org/2000/svg"
   xmlns:rdf="http://www.w3.org/1999/02/22-rdf-syntax-ns#"
   xmlns:cc="http://creativecommons.org/ns#"
   xmlns:dc="http://purl.org/dc/elements/1.1/"><defs
     id="defs2"><clipPath
       clipPathUnits="userSpaceOnUse"
       id="clipPath74"><path
         d="M 33,582.75 H 284.996 V 728.895 H 33 Z"
         transform="translate(-67.715977,-606.51998)"
         id="path74" /></clipPath><filter
       inkscape:collect="always"
       style="color-interpolation-filters:sRGB"
       id="filter4"
       x="-0.05101963"
       y="-0.083993475"
       width="1.1020393"
       height="1.167987"><feGaussianBlur
         inkscape:collect="always"
         stdDeviation="4.9023189"
         id="feGaussianBlur4" /></filter></defs><sodipodi:namedview
     id="base"
     pagecolor="#ffffff"
     bordercolor="#666666"
     borderopacity="1.0"
     inkscape:pageopacity="0.0"
     inkscape:pageshadow="2"
     inkscape:zoom="0.7"
     inkscape:cx="491.72469"
     inkscape:cy="569.69419"
     inkscape:document-units="px"
     inkscape:current-layer="layer1"
     inkscape:document-rotation="0"
     showgrid="false"
     inkscape:window-width="1920"
     inkscape:window-height="1017"
     inkscape:window-x="-8"
     inkscape:window-y="-8"
     inkscape:window-maximized="1"
     inkscape:showpageshadow="2"
     inkscape:pagecheckerboard="0"
     inkscape:deskcolor="#d1d1d1" /><metadata
     id="metadata5"><rdf:RDF><cc:Work
         rdf:about=""><dc:format>image/svg+xml</dc:format><dc:type
           rdf:resource="http://purl.org/dc/dcmitype/StillImage" /><dc:title /></cc:Work></rdf:RDF></metadata><g
     id="g1"
     inkscape:groupmode="layer"
     inkscape:label="1"
     transform="matrix(0.26458333,0,0,0.26458333,139.90016,-173.01676)"><g
       id="g4"><path
         id="text4"
         clip-path="url(#clipPath74)"
         style="mix-blend-mode:normal;fill:#800080;fill-opacity:0.709804;stroke:none;stroke-opacity:0.713725;filter:url(#filter4)"
         d="m 9.4335938,-20.751953 c -3.2316213,0.06311 -6.4429947,1.751196 -8.0609431,4.595699 -1.86239112,3.17166 -2.06416609,7.0860662 -1.31705323,10.6204322 0.6227693,2.8691421 2.55164443,5.52985685 5.35417973,6.5827472 3.0893626,1.1788655 6.7557868,1.0279883 9.6440058,-0.62921445 1.169835,-0.56049287 1.687087,-1.87590405 1.618782,-3.11375185 0.02634,-1.1380503 -0.0099,-2.6978551 -1.266315,-3.1633341 -1.173701,-0.5267115 -2.180744,0.4899684 -3.170897,0.9578714 C 10.761797,-4.1997933 8.5616119,-4.197609 7.6152344,-5.7402344 6.628983,-7.5338645 6.6879205,-9.7270321 7.0652878,-11.683444 c 0.2765655,-1.48904 1.4896801,-2.98909 3.1362342,-2.837138 1.344003,-0.05867 2.43353,0.805195 3.515275,1.463941 1.14889,0.595475 2.583418,-0.23658 2.771484,-1.486328 0.179359,-1.240836 0.277812,-2.636062 -0.326172,-3.7783 -1.147116,-1.550537 -3.17711,-2.080835 -4.991934,-2.367791 -0.575419,-0.07602 -1.157293,-0.08091 -1.7365812,-0.06289 z m 36.2246092,0 c -3.231756,0.06517 -6.446975,1.752111 -8.061943,4.600186 -1.860671,3.170821 -2.061741,7.0835126 -1.3141,10.6159452 0.626707,2.9082151 2.606242,5.59368515 5.458074,6.6256656 3.17588,1.1646215 6.944069,0.9595704 9.839844,-0.85351568 1.205706,-0.7349215 1.394817,-2.24097012 1.315354,-3.52692242 0.03258,-1.0619614 -0.312635,-2.3580046 -1.469651,-2.6605776 -1.419967,-0.3345232 -2.385241,1.0324091 -3.673828,1.328125 -1.453932,0.4103623 -3.387588,0.1434012 -4.064679,-1.3936244 -0.818176,-1.7879242 -0.77034,-3.8779005 -0.372821,-5.7684847 0.299446,-1.455367 1.511446,-2.8816 3.113631,-2.735426 1.345305,-0.05863 2.435685,0.805154 3.517228,1.465894 1.148997,0.591599 2.581448,-0.238932 2.769532,-1.488281 0.180503,-1.241572 0.274638,-2.6357 -0.328126,-3.7783 -1.145082,-1.550735 -3.176133,-2.080969 -4.989987,-2.367733 -0.576106,-0.07596 -1.158561,-0.08108 -1.738528,-0.06295 z m 66.468747,0 c -3.23135,0.06356 -6.44282,1.751554 -8.06094,4.595699 -1.86375,3.171801 -2.06196,7.0860541 -1.31705,10.6204322 0.62378,2.8688692 2.55168,5.52961456 5.35418,6.5827472 3.09153,1.1796379 6.76003,1.0271221 9.64963,-0.63154599 0.47246,-0.26302496 0.88885,-0.62519741 1.16911,-1.09116066 -0.17626,0.80582964 0.24879,1.6104613 0.99099,1.95738855 1.07203,0.4321021 2.31865,0.3740247 3.43256,0.1377291 1.10833,-0.2607087 1.55439,-1.4438588 1.54327,-2.477493 0.097,-0.8217603 0.19399,-1.6435206 0.29099,-2.4652809 0.54671,0.063148 -0.0227,1.1153762 0.0615,1.5883895 -0.10995,1.00240459 -0.48236,2.28001786 0.48342,2.9858292 1.06497,0.7308512 2.47605,0.5857854 3.6875,0.4003907 1.07549,-0.2048587 1.669,-1.27517316 1.63479,-2.31070729 0.10481,-0.88796741 0.20962,-1.77593471 0.31443,-2.66390211 1.15094,0.1818138 2.26654,-0.6671066 2.39648,-1.828125 0.25378,-1.3152757 0.0482,-3.078819 -1.38086,-3.6210937 -0.56573,0.1171732 -0.32475,-1.2388098 0.003,-1.2460938 1.31093,0.129772 2.2218,-1.17007 2.19843,-2.378906 0.13423,-1.217085 -0.29131,-2.813437 -1.65674,-3.084509 -0.20822,-0.387284 0.10283,-1.166993 0.0942,-1.705109 0.17396,-0.911054 0.27837,-2.097769 -0.61914,-2.667414 -1.04598,-0.665644 -2.4083,-0.534275 -3.58203,-0.339843 -1.07621,0.203813 -1.68169,1.280225 -1.64949,2.316674 -0.0914,0.785067 -0.18289,1.570134 -0.27434,2.355201 -0.52966,-0.07501 0.0368,-1.116739 -0.0442,-1.587461 0.18561,-0.93171 0.2983,-2.154445 -0.61593,-2.744571 -1.04161,-0.664479 -2.39906,-0.534947 -3.56836,-0.339843 -0.98625,0.193122 -1.65968,1.121069 -1.62709,2.107928 -0.10543,0.854649 -0.21085,1.709298 -0.31627,2.563947 -0.47824,-0.05104 -1.05428,0.06032 -1.41992,0.242187 0.054,-1.268774 0.0139,-2.767349 -1.11914,-3.589843 -1.70591,-1.266191 -3.95517,-1.762241 -6.05274,-1.681641 z m 43.36328,0.220703 c -1.11636,-0.05502 -2.50656,0.382132 -2.72851,1.628906 -0.19853,1.341246 0.59641,2.581965 0.91636,3.850194 1.7319,5.1276794 3.42611,10.2685593 5.1813,15.3880875 0.77821,1.3131782 2.45893,1.2579532 3.79013,1.2486819 1.30992,-0.033672 3.01416,0.1814866 3.82119,-1.1002444 0.70579,-1.5215553 1.09537,-3.181584 1.68091,-4.7554829 1.33814,-3.9799432 2.67627,-7.9598861 4.01441,-11.9398301 0.0208,5.172182 -0.0417,10.3471264 0.0312,15.51757862 0.13679,1.41170076 1.55513,2.34477208 2.91132,2.19335938 2.56028,-0.083235 5.15677,0.214401 7.68824,-0.2717382 2.55889,-0.47433402 5.05422,-2.1627769 5.78533,-4.7638673 0.77232,-2.4593483 0.13401,-5.4485931 -2.00989,-7.0229885 2.03372,-2.577896 1.44493,-6.938698 -1.46101,-8.631491 -2.64035,-1.65235 -5.88417,-1.189654 -8.8429,-1.264993 -1.22587,-0.02676 -2.70806,-0.148201 -3.54375,0.951172 -0.26449,0.441127 -0.45501,-0.570797 -0.84546,-0.618468 -1.10184,-0.624628 -2.44636,-0.393249 -3.65803,-0.366904 -1.13685,0.01474 -2.09563,0.8971 -2.26687,2.010326 -1.0147,3.261213 -2.02939,6.522426 -3.04409,9.7836395 -1.12732,-3.5014005 -2.17573,-7.0324315 -3.35157,-10.5156255 -0.67763,-1.601229 -2.66861,-1.295638 -4.06836,-1.320312 z m -96.361324,3.574219 c -1.192142,-0.02107 -2.578394,0.712609 -2.591797,2.039062 0,1.181641 0,2.363281 0,3.544922 -1.246951,0.06892 -2.536511,-0.142431 -3.757253,0.113397 -1.430631,0.576504 -1.520197,2.3681925 -1.361887,3.6854312 0.100867,1.1476296 1.058689,2.2464132 2.278125,2.1015626 0.947005,0 1.89401,-10e-8 2.841015,0 0.0576,1.3627111 -0.119333,2.756491 0.09625,4.0996336 0.436066,1.33670101 2.063576,1.54834973 3.283703,1.4737056 1.17489,0.0383709 2.606993,-0.59218064 2.668876,-1.9170892 0.02734,-1.2173207 0.0039,-2.437738 0.01172,-3.65625 1.228386,-0.064575 2.494243,0.1321749 3.700016,-0.1027873 0.398085,-0.040305 0.770298,-0.6383822 0.993344,-0.5983846 0.858871,1.0608613 2.331173,0.6040154 3.505859,0.7011719 0.698298,-0.084627 1.296756,-0.069413 1.041016,0.7999999 0.08028,1.1289389 -0.170691,2.3136544 0.144531,3.4070313 0.515589,1.31706991 2.168332,1.43432533 3.394531,1.36132812 1.168226,0.01348215 2.501683,-0.70374884 2.523438,-1.99609372 0,-1.1907552 0,-2.3815104 0,-3.5722656 1.22612,-0.064133 2.48843,0.1311058 3.692721,-0.1016577 1.441358,-0.5036916 1.610534,-2.2696124 1.451764,-3.5756957 C 83.004035,-10.325183 82.05701,-11.517667 80.8,-11.373047 c -0.966536,0 -1.933073,0 -2.899609,0 -0.04017,-1.332656 0.0816,-2.676559 -0.0625,-4.001953 -0.387514,-1.360535 -1.969519,-1.675718 -3.203823,-1.587955 -1.203917,-0.05384 -2.693995,0.568966 -2.780552,1.929752 -0.038,1.217591 -0.0041,2.440579 -0.01563,3.660156 -1.247877,0.0699 -2.539727,-0.144215 -3.760697,0.114302 -0.430704,-0.0093 -0.719317,0.87378 -1.034225,0.456011 -0.902757,-0.931076 -2.299849,-0.452326 -3.445703,-0.570313 -0.776349,0.143146 -1.211654,-0.05475 -0.99961,-0.9 -0.07472,-1.090898 0.161347,-2.235705 -0.142578,-3.291406 -0.495931,-1.330612 -2.110556,-1.45628 -3.326172,-1.392578 z m 120.228514,2.388672 c 0.6193,-0.02219 1.67927,0.01923 1.55274,0.90625 0.0908,0.738062 -0.65408,1.113465 -1.29594,1.013475 -0.87998,0.29532 -0.66535,-0.513201 -0.66891,-1.09785 0.0885,-0.393826 -0.27485,-1.009858 0.41211,-0.821875 z m -66.15039,0.05664 c 1.27591,0.04292 2.24418,0.936872 3.3125,1.494141 0.54394,0.225558 1.20188,0.207747 1.69922,-0.119141 -0.11957,1.18823 0.39297,2.678185 1.71484,2.884766 0.18305,0.165144 0.1836,1.4165994 -0.3789,1.2089842 -1.30708,-0.041577 -2.10875,1.3037392 -2.06414,2.4925137 0.18677,0.6786957 -0.35108,0.5223144 -0.82684,0.6897437 -1.17638,0.6114506 -2.32899,1.5049317 -3.73934,1.3990602 -1.32666,0.1023817 -2.59831,-0.7459777 -2.98101,-2.02663 -0.61321,-1.9882718 -0.61503,-4.2307168 0.14844,-6.1796878 0.5181,-1.258864 1.7492,-2.031269 3.11523,-1.84375 z m 13.03125,4.292969 c 0.068,0.4341422 -0.34742,1.8109042 -0.34703,0.7786118 0.11258,-0.2554797 -0.10271,-0.9171228 0.34703,-0.7786118 z m 53.45703,3.3847656 c 0.80803,-0.00129 2.14308,0.020857 2.1875,1.1035156 0.18444,0.8446047 -0.68483,1.3540904 -1.42612,1.2785305 -0.45495,-0.1305213 -1.53932,0.33609 -1.51138,-0.2914211 0,-0.696875 0,-1.39375 0,-2.090625 0.25,0 0.5,0 0.75,0 z M 154.00586,15.621094 c -1.17919,-0.01525 -2.67376,0.516856 -2.79492,1.867187 -0.0523,1.840545 -0.004,3.711192 -0.0234,5.541016 -0.40784,-0.947494 -1.50975,-1.208755 -2.45,-1.091797 -0.90674,0.29281 -0.60034,-0.627526 -0.6418,-1.2 0.15234,-1.227486 -0.95943,-2.208187 -2.12797,-2.255809 -1.28279,-0.09005 -2.76967,-0.252865 -3.86226,0.555418 -0.92332,0.665831 -0.64376,1.919743 -0.68555,2.900391 -0.53004,-0.116052 -0.97655,0.448464 -1.45508,0.115234 -1.22369,-0.281116 -2.55119,-0.304601 -3.76757,0.02344 -1.28475,0.455501 -1.36576,1.965717 -1.77304,3.059571 -0.33673,1.068685 -0.67345,2.137369 -1.01017,3.206054 -0.6784,-1.791229 -1.18879,-3.657211 -1.9707,-5.402344 -0.7827,-1.295399 -2.49079,-1.075201 -3.78711,-1.076172 -0.50199,0.03539 -1.02061,0.06846 -1.48242,0.28711 -0.66991,-2.740155 -3.30128,-4.586797 -6.01431,-4.911121 -2.34739,-0.349208 -4.73365,-0.14563 -7.09712,-0.182772 -1.52691,0.01575 -2.72745,1.469888 -2.58779,2.965377 0.0118,5.726634 -0.0235,11.45684 0.0176,17.18125 0.0991,1.29497 1.50102,1.865718 2.64479,1.859261 1.31742,0.02503 3.01619,0.177155 3.86888,-1.044808 0.58628,-0.929282 0.21545,-2.104867 0.32031,-3.144922 0,-0.816927 0,-1.633854 0,-2.450781 2.88118,0.06134 6.07556,-0.825664 7.76563,-3.330078 0.37227,-0.53511 0.66401,-1.124118 0.88086,-1.738281 1.31653,3.468083 2.57006,6.96213 3.92578,10.414062 -0.17226,0.875758 -0.68508,1.785111 -0.98849,2.673807 -0.45919,0.965802 -0.9233,2.263132 -0.0195,3.131306 1.04117,0.967047 2.60939,0.74027 3.9138,0.680168 1.2434,-0.04908 2.50637,-0.814649 2.72854,-2.112708 1.64828,-4.813219 3.27939,-9.632245 4.91837,-14.448745 0.37314,0.347532 1.22133,-0.01913 0.96875,0.734375 0.0731,2.216608 -0.1718,4.457888 0.17969,6.65625 0.30558,1.967277 1.84349,3.667751 3.82227,4.029297 1.67819,0.307231 3.57483,0.295134 5.07031,-0.611328 0.35965,-0.228144 0.60833,-0.587828 0.76367,-0.978516 0.31846,1.28317 1.80446,1.572333 2.94994,1.55943 1.18304,0.0011 2.73844,0.04865 3.41139,-1.112164 0.50719,-0.963523 0.16193,-2.119879 0.26367,-3.166797 0.0251,-1.991266 -0.0499,-4.018541 0.0371,-5.9875 0.4505,-0.421251 1.06449,-1.291875 1.75781,-0.884765 0.55804,1.047108 0.22204,2.311051 0.31836,3.448437 0.0381,2.029055 -0.0752,4.06975 0.0545,6.09177 0.27031,1.272093 1.72418,1.622072 2.85797,1.608629 1.20914,0.0037 2.80571,0.08267 3.49964,-1.109774 0.50719,-0.963523 0.16193,-2.119879 0.26367,-3.166797 0,-0.676823 0,-1.353646 0,-2.030469 0.31853,2.53534 1.91799,4.955259 4.35453,5.884894 2.39564,0.920406 5.15897,0.919093 7.55953,0.0155 2.63028,-0.992336 4.38832,-3.578867 4.75928,-6.312541 0.11661,-1.068123 0.0594,0.144813 0.0728,0.633635 0.0542,1.540497 -0.11002,3.099418 0.084,4.628125 0.43289,1.288576 1.95607,1.476676 3.13231,1.464561 1.19359,0.0048 2.79483,-0.04562 3.32503,-1.330076 0.32395,-1.104218 0.0691,-2.309558 0.15008,-3.453626 0.0251,-1.824579 -0.05,-3.685235 0.0371,-5.4875 0.4505,-0.421251 1.06449,-1.291875 1.75781,-0.884765 0.55804,1.047108 0.22204,2.311051 0.31836,3.448437 0.0381,2.029055 -0.0752,4.06975 0.0545,6.09177 0.27031,1.272093 1.72419,1.622072 2.85798,1.608629 1.20913,0.0037 2.8057,0.08267 3.49963,-1.109774 0.50719,-0.963523 0.16194,-2.119879 0.26367,-3.166797 -0.0562,-2.559879 0.1236,-5.131553 -0.11314,-7.683401 -0.21107,-2.372093 -1.81177,-4.66482 -4.1862,-5.266626 -1.84701,-0.502639 -3.90812,-0.262335 -5.52487,0.790652 -0.9247,-0.973224 -2.43595,-0.821929 -3.66135,-0.71727 -1.17296,0.05908 -2.16654,1.117638 -1.9949,2.310239 0,1.523698 0,3.047396 0,4.571094 -0.18913,-2.611563 -1.58729,-5.274426 -4.06174,-6.367553 -2.40109,-1.064578 -5.23322,-1.104785 -7.70596,-0.260424 -2.72454,0.939195 -4.60443,3.566431 -4.98816,6.37407 0.0222,-2.369556 -0.83814,-5.018805 -3.05635,-6.185778 -1.72813,-0.950927 -3.91692,-1.009817 -5.72295,-0.241956 -0.05,-1.666764 0.10159,-3.34909 -0.0781,-5.005859 -0.57518,-1.527982 -2.43124,-1.543297 -3.79687,-1.498047 z m -177.560548,1.085937 c -2.745468,-0.02743 -5.741584,1.131629 -7.035033,3.696799 -1.475798,2.799666 -0.843585,6.669759 1.752515,8.601085 1.563076,1.300874 3.633181,1.731447 5.274706,2.891569 0.600224,0.421353 0.0521,1.272702 -0.570312,1.273438 -1.673469,0.311283 -3.266306,-0.462895 -4.654297,-1.310547 -1.19439,-0.603855 -2.70107,0.306672 -2.806641,1.623047 -0.143332,1.414262 -0.309064,3.211148 0.965177,4.175673 2.185973,1.560125 5.061668,1.916562 7.671186,1.525636 2.65166,-0.365229 5.218386,-2.026596 6.168079,-4.603611 0.163175,-0.238775 0.23482,-1.082266 0.360276,-0.996518 0.909092,2.6894 3.26487,4.798028 6.046839,5.379526 2.2260433,0.493384 4.5993212,0.555777 6.7903961,-0.138909 1.7845533,1.660301 3.94792784,3.058847 6.363398,3.54983 1.1487654,0.316867 2.3972622,-0.466678 2.5643364,-1.655299 0.1736026,-0.660615 0.1189181,-1.467368 0.1484375,-2.060547 1.2643992,0.62329 2.7260116,0.231923 4.0789063,0.341797 2.1496597,-0.03736 4.3109077,0.07425 6.4534357,-0.05483 1.277725,-0.296777 1.652692,-1.759938 1.615492,-2.915 0.05368,-1.181553 -0.182792,-2.639027 -1.43299,-3.120009 -1.635144,-0.205729 -3.302556,-0.03303 -4.950391,-0.08984 -0.369536,-0.250776 -0.05813,-1.182495 -0.160937,-1.7 -0.01711,-4.10504 0.0341,-8.216552 -0.02539,-12.317578 -0.144472,-1.325418 -1.6112378,-1.843103 -2.7773438,-1.830078 -1.2833546,-0.01437 -2.9176018,-0.128191 -3.7502357,1.037869 -0.581246,0.977956 -0.2079618,2.181932 -0.3142174,3.261741 0,5.008854 0,10.017708 0,15.026562 C 3.3950106,35.9479 2.5426575,35.634239 1.7929688,35.126953 3.7518798,32.059798 3.9765971,28.202348 3.4375,24.689453 2.9865755,21.820364 1.3256176,19.028957 -1.3710938,17.771484 -4.112185,16.513097 -7.3208395,16.421361 -10.210892,17.189305 c -3.125652,0.846222 -5.615467,3.456877 -6.451751,6.566802 -0.448934,1.461051 -0.594951,3.074863 -0.597123,4.548581 -1.354893,-2.257051 -3.978372,-3.109928 -6.222313,-4.185045 -0.408681,-0.21712 -1.24757,-0.616929 -0.869483,-1.186049 1.276783,-0.603131 2.703432,0.143078 3.844954,0.742675 1.002837,0.687725 2.562877,0.238168 2.889499,-0.97174 0.289112,-1.179944 0.340487,-2.494675 -0.05242,-3.656123 -0.644937,-1.378265 -2.312398,-1.767261 -3.659257,-2.109626 -0.732073,-0.155393 -1.478448,-0.222755 -2.225899,-0.231749 z m 65.65625,0.261719 c -1.132781,-0.01188 -2.566595,0.367226 -2.833781,1.627263 -0.125366,2.273675 -0.01633,4.566156 -0.05294,6.846956 -0.0386,2.474524 0.07772,4.957634 -0.05878,7.426924 -0.330383,0.225643 -0.869252,-0.261841 -1.258397,-0.380932 -1.171238,-0.497066 -2.534543,0.442131 -2.590968,1.692648 -0.09045,1.365761 -0.327194,3.026874 0.749128,4.081816 1.717203,1.181942 4.012562,1.230362 5.975567,0.723667 2.112554,-0.544218 3.599036,-2.508914 3.8717,-4.627704 0.348948,-2.392424 0.10687,-4.823784 0.178941,-7.232826 -0.02962,-2.818348 0.05902,-5.64765 -0.04391,-8.459208 -0.201203,-1.210254 -1.558134,-1.692848 -2.651728,-1.686025 -0.427461,-0.03082 -0.856752,-0.02619 -1.284836,-0.01258 z m 11.261719,4.640625 c -1.977257,0.142449 -4.078073,0.562604 -5.65039,1.837891 -1.072754,1.030381 -0.992463,2.768174 -0.509924,4.060013 0.319351,0.716361 1.042167,1.217632 1.830236,1.219283 -1.946863,0.917154 -3.061242,3.1103 -2.860462,5.223565 0.01133,2.324187 1.684425,4.477907 3.936634,5.057685 1.832504,0.530621 3.907555,0.460479 5.595703,-0.486328 1.052828,0.768245 2.485781,0.59724 3.704976,0.44872 1.150201,-0.138351 1.880078,-1.317224 1.687602,-2.425282 0,-2.708984 0,-5.417969 0,-8.126953 1.038363,3.084263 2.026419,6.186634 3.095703,9.259765 0.639736,1.380608 2.361109,1.397008 3.671807,1.406724 1.370605,-0.03293 3.16339,0.175436 4.010903,-1.155078 0.672708,-1.381895 1.001428,-2.91931 1.540228,-4.361208 0.659412,-1.986265 1.318823,-3.972531 1.978234,-5.958797 0.324322,0.670182 1.02963,1.110318 1.771485,1.117187 -1.945192,0.917873 -3.06125,3.110734 -2.85851,5.223565 0.01241,2.323295 1.682324,4.481025 3.936635,5.057685 1.831964,0.532095 3.904328,0.458166 5.59375,-0.484374 1.054108,0.763576 2.484247,0.596063 3.703055,0.446912 1.153294,-0.135919 1.884785,-1.315229 1.689523,-2.425428 -0.03684,-3.128055 0.0746,-6.261954 -0.05719,-9.386402 -0.104169,-2.054569 -1.285266,-4.113867 -3.264424,-4.866893 -2.860573,-1.108968 -6.182608,-0.849008 -8.947912,0.423217 -0.347863,0.07455 -0.805537,0.738393 -0.908204,0.08984 -0.932849,-1.186991 -2.615363,-0.955285 -3.953125,-0.908204 -1.090707,0.01666 -2.174784,0.707835 -2.361123,1.835819 -0.511136,1.674519 -1.022272,3.349037 -1.533408,5.023556 -0.62885,-1.897049 -1.110565,-3.852309 -1.832031,-5.71289 -0.735955,-1.338292 -2.480344,-1.17823 -3.787109,-1.183594 -1.138465,-0.04399 -2.565364,0.450479 -2.726563,1.732422 -0.0142,0.520367 -0.45956,-0.408561 -0.735562,-0.485244 -1.585185,-1.311021 -3.778066,-1.541738 -5.760532,-1.497178 z m -59.8085935,1.269531 c 1.2394796,-0.04005 2.4041634,0.786698 2.7013797,2.006322 0.5453946,2.040832 0.551352,4.275028 -0.086145,6.296413 -0.4207645,1.344525 -1.8315683,2.138134 -3.2017552,1.967667 -1.1455721,0.06689 -2.3449364,-0.542366 -2.6841729,-1.696461 -0.6244411,-1.928533 -0.6331441,-4.052572 -0.2176884,-6.027241 0.2685817,-1.416915 1.5143064,-2.632622 3.0102051,-2.547971 0.1595025,-0.01066 0.3186367,-0.0041 0.478177,0.0013 z M 117.45703,23.017578 c 0.76654,-0.02827 1.86048,0.08728 1.92531,1.067596 0.17375,0.91262 -0.10156,2.234631 -1.22414,2.319123 -0.83081,0.301278 -0.94897,-0.2399 -0.83203,-0.955078 0,-0.810547 0,-1.621094 0,-2.431641 h 0.1 z m 33.73242,10.789063 c -0.46621,-0.926885 -1.70812,-1.188344 -2.59179,-0.689453 -0.68812,0.38693 -0.46071,-0.580494 -0.50196,-0.974219 0,-1.405729 0,-2.811459 0,-4.217188 1.02082,0.0066 2.28085,0.178453 2.93164,-0.810547 0.32873,-0.688225 0.0893,0.873561 0.16211,1.199219 0,1.830729 0,3.661458 0,5.492188 z M 53.761719,27.40625 c 0.193178,-0.03798 0.934863,0.172932 0.428949,0.238541 -1.065765,0.02168 -2.135884,0.11691 -3.175043,0.361068 0.860605,-0.399763 1.788319,-0.6673 2.746094,-0.599609 z m 28.134765,0 c 0.192975,-0.04112 0.93491,0.173809 0.426997,0.238555 -1.067791,0.02176 -2.139987,0.117335 -3.180903,0.363007 0.862658,-0.400963 1.793779,-0.669134 2.753906,-0.601562 z m 93.417966,0.125 c 1.17253,0.07793 1.30902,1.485951 1.37584,2.398824 0.002,1.12322 0.11588,2.598237 -0.92467,3.31602 -0.81299,0.342487 -2.04505,0.15507 -2.22169,-0.86874 -0.34503,-1.400214 -0.44594,-3.018998 0.27248,-4.31876 0.31355,-0.500645 0.96006,-0.579091 1.49804,-0.527344 z M 54.478516,33.068359 c -0.413522,0.436171 -1.114359,0.870369 -1.699219,0.560547 -0.187927,-0.653458 0.784093,-0.575024 1.176021,-0.655877 0.133431,0.05329 0.585441,-0.161854 0.523198,0.09533 z m 28.134765,0 c -0.417897,0.44113 -1.093628,0.855048 -1.697265,0.570313 -0.208677,-0.62611 0.6996,-0.577773 1.072265,-0.660156 0.137892,0.05857 0.688621,-0.171058 0.625,0.08984 z m 49.251949,21.138672 c -2.65989,-0.01821 -5.55564,1.045178 -6.9082,3.46875 -0.29075,-1.789047 -2.19904,-2.579105 -3.74373,-3.035002 -3.82708,-1.103813 -8.42281,0.03929 -10.82772,3.341249 -2.35255,3.183977 -2.68346,7.436747 -1.95349,11.220329 0.57099,2.933193 2.47334,5.70123 5.32091,6.80614 3.10828,1.225568 6.81848,1.078843 9.73633,-0.590786 0.44328,-0.0837 0.7915,-0.984839 1.11529,-0.412831 1.93238,1.537817 4.55009,1.950873 6.95971,1.78969 2.48148,-0.18074 5.05454,-1.277881 6.41419,-3.45082 0.12408,1.677122 1.84519,2.500742 3.25424,2.945545 3.22148,1.00206 7.09133,0.716372 9.73013,-1.541248 2.86649,-2.488091 3.20576,-7.462445 0.42152,-10.136762 -1.62245,-1.670717 -3.99242,-2.181594 -5.90931,-3.3872 -0.48573,-0.211844 -0.40878,-0.982834 0.17529,-0.962366 1.5034,-0.302952 2.79199,0.682362 4.11523,1.191406 1.15352,0.317718 2.28533,-0.648587 2.35938,-1.802734 0.10312,-1.387604 0.30365,-3.146862 -0.97461,-4.080079 -2.54776,-1.569329 -5.84969,-1.740689 -8.63867,-0.734374 -2.49232,0.90768 -4.27639,3.405442 -4.26795,6.064816 -0.18034,2.540134 1.23988,5.048569 3.47072,6.255415 1.40346,0.920961 3.13333,1.276397 4.43395,2.34969 0.48323,0.571783 -0.29032,1.237527 -0.88867,1.197266 -1.61189,0.216485 -3.11233,-0.534441 -4.44727,-1.34375 -0.52636,-0.267382 -1.23172,-0.205746 -1.69727,-0.0039 0.10599,-2.564312 -1.49848,-4.970655 -3.76104,-6.099767 -1.35495,-0.862925 -3.01717,-1.187075 -4.26239,-2.21664 -0.36194,-0.380143 0.0789,-0.848286 0.51758,-0.802734 1.45991,-0.216345 2.6894,0.725613 3.97656,1.216797 1.15352,0.317718 2.28532,-0.648587 2.35937,-1.802734 0.10312,-1.387604 0.30365,-3.146862 -0.97461,-4.080079 -1.49225,-0.979168 -3.34493,-1.335105 -5.10547,-1.363281 z M 18.853516,54.46875 c -1.153147,-0.0038 -2.648472,0.419226 -2.845704,1.734375 -0.09203,3.417004 -0.01237,6.847139 -0.03906,10.269141 0.02718,2.78876 -0.05364,5.585782 0.03906,8.369531 0.196435,1.318981 1.693764,1.734051 2.845704,1.734375 1.27608,0.0076 2.951171,0.114939 3.703125,-1.136719 0.507188,-0.963523 0.161934,-2.119879 0.263671,-3.166797 10e-7,-1.320703 0,-2.641406 0,-3.962109 1.363282,0 2.726563,0 4.089844,0 0.03748,2.208532 -0.07429,4.428533 0.0545,6.630051 0.295115,1.329257 1.842703,1.657787 3.022403,1.64005 1.293818,0.02819 2.985221,0.01035 3.629197,-1.34369 0.316637,-1.211858 0.06899,-2.515539 0.147416,-3.764302 0,-3.767578 0,-7.535156 0,-11.302734 0.882055,0.852543 2.211876,0.41592 3.3125,0.523437 0.546653,0.06871 1.531819,-0.301089 1.246094,0.6 0.02213,4.50201 -0.04413,9.01077 0.03289,13.508587 0.161386,1.308129 1.627302,1.76542 2.769846,1.77032 1.341836,0.02232 3.129727,0.127447 3.863792,-1.250662 0.405418,-1.013392 0.110869,-2.174337 0.200661,-3.248948 0,-3.793099 0,-7.586198 0,-11.379297 1.298082,-0.05383 2.615431,0.112622 3.900391,-0.0918 0.65664,-0.541269 0.748407,-0.360456 0.658203,0.446875 0.01966,4.583499 -0.03923,9.171889 0.0293,13.752344 0.13771,1.281501 1.553862,1.766499 2.677734,1.769531 1.302806,0.03043 3.067256,0.109903 3.742188,-1.255859 0.401579,-0.980442 0.106845,-2.103016 0.197265,-3.141797 0,-1.414323 0,-2.828646 0,-4.242968 0.882821,2.489521 1.67364,5.015309 2.613281,7.482421 0.953443,1.362047 2.803627,1.198406 4.267548,1.131462 1.151034,-0.01488 2.21562,-0.806003 2.438992,-1.959423 0.825033,-2.315159 1.650067,-4.630318 2.475101,-6.945476 0.02714,2.399961 -0.0536,4.808174 0.03906,7.203125 0.204213,1.321447 1.694038,1.756427 2.857783,1.736803 1.284213,0.03218 3.022481,0.02586 3.607531,-1.368876 0.313128,-1.136955 0.06483,-2.364477 0.144061,-3.537068 -0.01957,-4.848209 0.03911,-9.699279 -0.0293,-14.545703 -0.103877,-1.498411 -1.49845,-2.686758 -2.994141,-2.582031 -1.751627,0.09898 -3.782281,-0.384843 -5.251953,0.847656 -1.278018,1.201316 -1.49695,3.04748 -2.200412,4.579595 -0.66692,1.76839 -1.33384,3.536781 -2.00076,5.305171 -1.050342,-2.844749 -2.043551,-5.715009 -3.121094,-8.546875 -0.658461,-1.565607 -2.415644,-2.261448 -4.023437,-2.185547 -1.503449,0.113731 -3.272458,-0.388768 -4.511719,0.722656 -0.41498,0.562973 -0.525087,0.52864 -0.8555,-0.08157 -0.859748,-0.994355 -2.271259,-0.538988 -3.414031,-0.641088 -3.895988,0.0224 -7.798849,-0.04458 -11.690585,0.0331 -0.551075,0.06153 -1.043155,0.451682 -1.323087,0.91807 -0.885,-1.205439 -2.582469,-1.039559 -3.910406,-1.008865 -1.126866,0.0042 -2.493375,0.587937 -2.583735,1.854568 -0.04179,1.893108 -0.0053,3.792154 -0.01758,5.6875 -1.363281,0 -2.726562,0 -4.089844,0 -0.03759,-1.973497 0.07447,-3.958496 -0.0545,-5.924973 -0.432979,-1.715881 -2.507174,-1.665896 -3.912296,-1.635574 z m 60,0 c -1.153147,-0.0038 -2.648472,0.419226 -2.845704,1.734375 -0.09203,3.417004 -0.01237,6.847139 -0.03906,10.269141 0.02118,2.611104 -0.04218,5.224997 0.03125,7.834375 0.137334,1.409133 1.556302,2.344216 2.911328,2.193359 2.917738,-0.0278 5.844446,0.05531 8.756641,-0.04102 1.293533,-0.211237 1.746216,-1.668267 1.708892,-2.82101 0.0591,-1.190082 -0.124705,-2.69815 -1.387195,-3.200725 -1.301671,-0.261056 -2.666432,-0.04786 -3.992791,-0.116937 -0.618865,-0.0014 -1.449441,0.208816 -1.160937,-0.7 -0.01971,-4.445356 0.0393,-8.898611 -0.0293,-13.339062 -0.167928,-1.347878 -1.671733,-1.831744 -2.851563,-1.8125 -0.367375,-0.01367 -0.734187,-0.01374 -1.101562,0 z m 40.093754,6.019531 c 1.2838,0.03803 2.2496,0.950054 3.32812,1.498047 0.58424,0.255066 1.32127,0.158626 1.80664,-0.185547 0.11001,2.475577 1.8211,4.626236 4.00781,5.673828 1.28144,0.757024 2.84183,1.075886 3.9435,2.107589 0.36915,0.70883 -0.55178,1.190472 -1.16029,1.140458 -1.58746,0.157661 -3.00575,-0.653991 -4.33399,-1.396484 -0.65963,-0.286624 -1.46486,-0.151149 -2.00586,0.308594 -0.71593,-0.91694 -2.11734,-0.734811 -2.94164,-0.05196 -1.40684,0.986819 -3.50987,1.420029 -4.97173,0.326215 -1.42965,-1.334751 -1.40947,-3.501214 -1.32303,-5.313421 0.10431,-1.653341 0.80888,-3.733684 2.65828,-4.07021 0.32775,-0.06177 0.66077,-0.04986 0.99219,-0.03711 z m 42.75976,30.621094 c -1.39672,-0.0688 -3.01388,0.571141 -3.37891,2.054687 -0.35428,1.405726 -0.31246,3.239393 0.94922,4.189454 -0.41514,0.584323 -0.59126,0.323229 -0.98301,-0.107115 -1.51045,-0.934623 -3.62753,-0.855199 -5.0541,0.220396 -1.05329,-0.807976 -2.51355,-0.65428 -3.75781,-0.501953 -0.99592,0.131671 -1.80583,1.121229 -1.74023,2.037109 -0.75055,-1.458543 -2.50806,-1.993559 -4.01121,-2.284858 -2.91818,-0.467121 -6.20776,0.612568 -7.82278,3.196967 -0.68457,1.056558 -1.12214,2.263178 -1.32226,3.503908 -1.32313,-2.32866 -3.99598,-3.20994 -6.2749,-4.290781 -0.40834,-0.218053 -1.2623,-0.619121 -0.88135,-1.193595 1.27662,-0.605678 2.7031,0.143993 3.84495,0.742675 1.00284,0.687725 2.56288,0.238168 2.8895,-0.97174 0.28751,-1.179991 0.34013,-2.494406 -0.0524,-3.656123 -0.64494,-1.378265 -2.3124,-1.767261 -3.65926,-2.109626 -3.04732,-0.629231 -6.70112,-0.02207 -8.6926,2.570565 -2.13847,2.782918 -1.7122,7.264595 1.10733,9.437925 1.57688,1.33842 3.68323,1.7727 5.35156,2.94921 0.63477,0.46066 -0.0139,1.3221 -0.65926,1.2875 -1.64705,0.2726 -3.20043,-0.49401 -4.56535,-1.3246 -0.98412,-0.48378 -2.2805,0.0209 -2.65039,1.05859 -0.0764,-2.22352 0.18113,-4.4745 -0.19296,-6.67748 -0.32243,-2.069486 -1.96936,-3.780543 -3.99649,-4.260021 -2.92944,-0.754283 -6.23373,-0.397638 -8.82813,1.152343 -0.55819,-1.321536 -2.20075,-1.310236 -3.41908,-1.277412 -1.18117,-0.03092 -2.66296,0.321676 -2.98131,1.638741 -0.53821,1.753139 -1.07121,3.507939 -1.607421,5.261719 -0.62885,-1.89705 -1.110565,-3.85231 -1.832031,-5.712891 -0.729559,-1.329843 -2.460677,-1.179854 -3.759766,-1.185547 -1.146243,-0.04575 -2.588821,0.439529 -2.753906,1.734375 -0.01348,0.520204 -0.454926,-0.402536 -0.7293,-0.479873 -1.91525,-1.52868 -4.556633,-1.666563 -6.898877,-1.395827 -1.696763,0.293886 -3.561719,0.708145 -4.781979,2.012419 -0.784134,1.091771 -0.703851,2.633484 -0.21875,3.828124 0.321283,0.69514 1.036876,1.16599 1.802734,1.16992 -1.947025,0.9173 -3.061116,3.11025 -2.860462,5.22357 0.01214,2.32397 1.68446,4.47769 3.936634,5.05768 1.832494,0.52876 3.907156,0.46005 5.595703,-0.48633 1.052828,0.76825 2.485781,0.59724 3.704976,0.44872 1.148808,-0.1397 1.880861,-1.31653 1.687603,-2.42528 0,-2.70898 -1e-6,-5.41797 0,-8.12695 1.038778,3.08278 2.024098,6.18503 3.095703,9.25586 0.634885,1.38525 2.361038,1.40052 3.671806,1.41063 1.346723,-0.0355 3.067913,0.17327 3.957103,-1.07079 0.67446,-1.23392 0.9308,-2.66026 1.43649,-3.97096 0.71192,-2.14445 1.42385,-4.28889 2.13577,-6.43333 0.32432,0.67018 1.02963,1.11031 1.77149,1.11718 -1.94586,0.91755 -3.06081,3.11071 -2.85851,5.22357 0.0134,2.32285 1.6824,4.48071 3.93663,5.05768 1.83202,0.53027 3.90419,0.45781 5.59375,-0.48437 1.05411,0.76357 2.48425,0.59606 3.70306,0.44691 1.13121,-0.13473 1.87691,-1.28219 1.68952,-2.38051 0.63893,1.46492 2.3499,1.99471 3.76753,2.39675 3.17467,0.77445 6.92475,0.33455 9.33989,-2.03151 0.67187,-0.67312 1.21172,-1.5348 1.55078,-2.38867 0.77632,2.37493 2.89932,4.22517 5.37809,4.60213 2.37677,0.4084 5.05848,0.001 6.9266,-1.60213 0.32893,-0.3411 0.49983,-0.86387 0.50177,-0.0965 0.27007,1.27528 1.72794,1.61836 2.86187,1.60865 1.18824,0.003 2.69823,0.0754 3.45777,-1.00761 0.58483,-0.97989 0.21132,-2.18648 0.31726,-3.26898 0,-1.82981 0,-3.65963 0,-5.48945 0.36875,-0.45098 0.71851,-1.22145 1.36914,-1.23242 0.83303,0.33129 1.909,0.50922 2.60352,-0.19336 0.0269,3.1604 -0.0533,6.32898 0.0391,9.48437 0.17839,1.25631 1.57572,1.70323 2.6875,1.69922 1.2442,0.0135 2.83861,0.13166 3.64758,-0.99938 0.58483,-0.97989 0.21133,-2.18648 0.31727,-3.26898 -0.0225,-3.72189 0.0447,-7.45068 -0.0331,-11.168316 -0.0136,-0.546692 -0.52639,-1.011691 -0.83213,-1.311368 1.31199,-1.031996 1.35612,-3.005588 0.85938,-4.46875 -0.52915,-1.370899 -2.0543,-1.796164 -3.39649,-1.744141 z M 16.017578,91.966797 c -1.140081,0.0038 -2.607315,0.39434 -2.843375,1.68393 -0.112499,1.771765 -0.01417,3.5597 -0.04725,5.337554 0.01285,-2.575054 -1.552342,-5.077819 -3.947913,-6.0747 -2.8446661,-1.25871 -6.0327582,-0.764679 -9.04739938,-0.868659 -1.55665862,-0.152368 -3.03685162,1.17257 -2.96604942,2.754414 -9.038e-4,5.800404 -0.025333,11.605264 0.012143,17.403784 0.099157,1.29452 1.5013689,1.86611 2.64479507,1.85927 1.31690193,0.0253 3.01737283,0.17675 3.86887673,-1.04481 0.5862797,-0.92928 0.2154543,-2.10487 0.3203126,-3.14492 0,-0.81693 0,-1.63386 0,-2.45078 2.885753,0.0625 6.0791474,-0.83024 7.7734374,-3.33594 0.862152,-1.2489 1.277618,-2.76179 1.341797,-4.267581 0.02224,4.160331 -0.04428,8.327451 0.03289,12.483591 0.161386,1.30812 1.627302,1.76542 2.769846,1.77032 1.299743,0.012 3.012851,0.14124 3.785156,-1.13282 0.507188,-0.96352 0.161934,-2.11988 0.263672,-3.16679 0,-1.32071 0,-2.64141 0,-3.96211 1.363281,0 2.726562,0 4.089843,0 0.03748,2.20853 -0.07429,4.42853 0.0545,6.63005 0.295114,1.32925 1.842703,1.65778 3.022402,1.64005 1.293818,0.0282 2.985221,0.0103 3.629197,-1.34369 0.316637,-1.21186 0.06899,-2.51554 0.147416,-3.7643 -0.01712,-5.05582 0.03411,-10.11812 -0.02539,-15.169926 -0.136185,-1.270921 -1.517805,-1.821213 -2.650602,-1.822807 -1.32193,-0.02535 -3.012896,-0.169365 -3.869365,1.04221 -0.573012,0.975988 -0.202012,2.174418 -0.308158,3.250129 0,1.085677 0,2.171354 0,3.257031 -1.363281,0 -2.726562,0 -4.089843,0 -0.0376,-1.973497 0.07447,-3.958496 -0.0545,-5.924973 -0.431781,-1.715098 -2.502355,-1.665587 -3.906437,-1.637527 z m 57.203125,0 c -1.132546,-0.0081 -2.567121,0.364215 -2.840138,1.623278 -0.124281,2.309335 -0.01611,4.636728 -0.05244,6.952895 -0.03853,2.44119 0.07764,4.89096 -0.05878,7.32692 -0.330383,0.22565 -0.869252,-0.26184 -1.258397,-0.38093 -1.170726,-0.49681 -2.532908,0.44123 -2.591241,1.69065 -0.08945,1.36653 -0.327658,3.02826 0.749401,4.08382 1.717547,1.18031 4.012539,1.23043 5.975567,0.72366 2.112593,-0.54405 3.598542,-2.50913 3.8717,-4.6277 0.348948,-2.39243 0.10687,-4.82379 0.178941,-7.23283 -0.02946,-2.817064 0.05869,-5.645047 -0.04365,-8.455348 -0.195713,-1.210275 -1.553532,-1.693909 -2.646016,-1.691285 -0.427322,-0.03117 -0.856919,-0.02299 -1.284944,-0.01313 z m -38.480469,0.08203 c -1.518449,-0.02568 -2.791868,1.368333 -2.6875,2.873047 0.01179,5.759966 -0.02353,11.523506 0.01758,17.281246 0.09915,1.29484 1.501538,1.86561 2.644796,1.85927 1.316931,0.0252 3.017372,0.17678 3.868876,-1.04481 0.58628,-0.92928 0.215455,-2.10487 0.320313,-3.14492 0,-0.81693 0,-1.63386 0,-2.45078 2.885753,0.0625 6.079147,-0.83024 7.773437,-3.33594 1.527603,-2.29991 1.773956,-5.401637 0.71875,-7.939457 -1.103209,-2.502462 -3.82793,-3.840678 -6.453866,-4.013195 -2.059943,-0.177471 -4.136909,-0.053 -6.202384,-0.08446 z m 150.462886,1.369141 c -1.11687,-0.003 -2.51997,0.405077 -2.76304,1.65188 -0.12768,0.599284 0.0476,1.353784 -0.0983,1.867651 -1.19856,-0.07078 -2.00884,1.116107 -2.0586,2.181641 -1.8494,-2.67572 -5.80437,-3.234159 -8.53086,-1.638268 -0.41462,0.420672 -0.66125,-0.318707 -1.11367,-0.381264 -1.20887,-0.344659 -2.58359,-0.382042 -3.75976,0.08594 -0.9475,0.407836 -1.20876,1.50975 -1.0918,2.45 0.0118,5.927022 -0.0235,11.857622 0.0176,17.782422 0.10992,1.36043 1.61505,1.9048 2.80273,1.88867 1.28929,0.0345 3.02649,0.0511 3.68164,-1.29297 0.39013,-1.01448 0.0998,-2.15881 0.18946,-3.22617 -0.15912,-0.83742 0.11426,-0.97266 0.8496,-0.61172 2.75666,0.64615 5.89283,-0.58496 7.26563,-3.11133 1.38458,-2.47537 1.56408,-5.45754 1.14844,-8.21484 0.71094,-0.0801 0.72552,0.37221 0.65234,0.97617 0.0815,2.14934 -0.19962,4.33457 0.228,6.45666 0.35611,2.00222 2.05393,3.62382 4.07078,3.8841 1.61587,0.23179 3.44417,0.2064 4.84661,-0.72201 1.11355,-0.89035 1.01791,-2.53271 0.87148,-3.81443 -0.0368,-1.25056 -1.4502,-2.16765 -2.58913,-1.60862 -0.57695,0.40348 -0.88115,0.0482 -0.75,-0.56679 0,-1.50964 0,-3.01927 0,-4.52891 1.01701,0.005 2.27394,0.1799 2.92382,-0.80469 0.68241,-1.18154 0.6125,-2.690361 0.24024,-3.964839 -0.37909,-0.963348 -1.44967,-1.36109 -2.42227,-1.21875 -0.8944,0.280467 -0.77611,-0.451748 -0.74179,-1.1 0.17069,-1.176511 -0.78301,-2.217252 -1.93165,-2.329688 -0.64074,-0.09828 -1.29043,-0.115644 -1.9375,-0.08984 z M 4.1425781,98.017578 c 0.7649664,-0.02666 1.8640684,0.08507 1.9253078,1.067596 0.1961623,0.950466 -0.1507444,2.309926 -1.323451,2.330806 -0.8768026,0.32988 -0.7684331,-0.43187 -0.7327161,-1.06676 -10e-8,-0.777215 0,-1.554428 0,-2.331642 h 0.1 z m 34.8925779,0 c 0.764967,-0.02666 1.864069,0.08507 1.925308,1.067596 0.196162,0.950466 -0.150744,2.309926 -1.323451,2.330806 -0.876803,0.32988 -0.768433,-0.43187 -0.732716,-1.06676 0,-0.777215 0,-1.554428 0,-2.331642 h 0.1 z M 84.875,102.40625 c 0.386375,-0.0628 0.971968,0.30376 0.228993,0.24271 -0.998888,0.0321 -2.001143,0.12648 -2.975087,0.3569 0.860164,-0.40011 1.788204,-0.66973 2.746094,-0.59961 z m 28.13477,0 c 0.19308,-0.042 0.93491,0.17367 0.42699,0.23854 -1.06779,0.0216 -2.13998,0.11742 -3.1809,0.36302 0.86097,-0.40198 1.79492,-0.67101 2.75391,-0.60156 z m 29.87695,0.20703 c 1.28272,0.10282 2.12739,1.64898 3.51172,1.25977 0.6211,-0.10485 1.10868,-0.61058 1.35547,-1.17383 0,1.68489 0,3.36979 0,5.05469 -0.54113,-1.12942 -2.15113,-1.2631 -3.01758,-0.42774 -0.76922,0.64266 -1.92399,1.30183 -2.88867,0.67969 -0.83081,-1.04502 -0.68178,-2.52829 -0.57032,-3.78125 0.10942,-0.84575 0.58015,-1.82993 1.60938,-1.61133 z m 31.29101,0.14844 c 0.80868,0.33052 0.79513,1.43156 0.90247,2.17599 0.0335,1.0916 0.0426,2.44839 -0.86536,3.20487 -0.75155,0.25379 -1.26907,-0.58251 -1.73632,-1.0293 0.0427,-1.10044 -0.0847,-2.2603 0.0623,-3.32435 0.43575,-0.45708 0.92945,-1.09856 1.63696,-1.02721 z m -88.585933,5.30859 c -0.412428,0.43336 -1.114912,0.86944 -1.699219,0.5586 -0.187927,-0.65346 0.784094,-0.57503 1.176021,-0.65588 0.134267,0.0534 0.587346,-0.16294 0.523198,0.0973 z m 28.134763,0 c -0.42316,0.43623 -1.09342,0.85336 -1.69726,0.56836 -0.20868,-0.62611 0.6996,-0.57777 1.07226,-0.66015 0.13868,0.0589 0.69075,-0.17245 0.625,0.0918 z"
         transform="matrix(1.3333333,0,0,1.3333333,-482.46853,685.61494)" /><text
         id="text71"
         xml:space="preserve"
         transform="matrix(1.3333333,0,0,1.3333333,-482.46853,685.61494)"
         clip-path="url(#clipPath74)"><tspan
           style="font-variant:normal;font-weight:700;font-size:29.9999px;font-family:Calibri;writing-mode:lr-tb;fill:#000000;fill-opacity:1;fill-rule:nonzero;stroke:none"
           x="0 15.878856 36.225471 52.104324 67.405685 82.347038 102.69366 118.57251 133.51387 153.86049 171.59969"
           y="0"
           sodipodi:role="line"
           id="tspan71">C C++ C# VB</tspan><tspan
           style="font-variant:normal;font-weight:700;font-size:29.9999px;font-family:Calibri;writing-mode:lr-tb;fill:#000000;fill-opacity:1;fill-rule:nonzero;stroke:none"
           x="-31.10585 -16.926208 3.6547804 16.340286 36.686901 46.618511 61.008034 74.752327 89.561852 109.90846 126.11521 140.44415 150.8445 166.94308 183.07097 199.16954"
           y="37.499882"
           sodipodi:role="line"
           id="tspan72">SQL Java Python </tspan><tspan
           style="font-variant:normal;font-weight:700;font-size:29.9999px;font-family:Calibri;writing-mode:lr-tb;fill:#000000;fill-opacity:1;fill-rule:nonzero;stroke:none"
           x="15.402791 34.32851 49.18198 75.402596 88.088104 108.43472 124.31358 138.49321 152.67287"
           y="74.999763"
           sodipodi:role="line"
           id="tspan73">HTML CSS </tspan><tspan
           style="font-variant:normal;font-weight:700;font-size:29.9999px;font-family:Calibri;writing-mode:lr-tb;fill:#000000;fill-opacity:1;fill-rule:nonzero;stroke:none"
           x="-3.4057391 12.561007 31.486727 47.453472 67.800087 77.731697 92.121223 105.86552 120.67503 134.85468 147.40836 158.07237 165.44052 181.4191"
           y="112.49964"
           sodipodi:role="line"
           id="tspan74">PHP JavaScript</tspan></text></g></g></svg>
