{
    "asset" : {
        "generator" : "Khronos glTF Blender I/O v1.8.19",
        "version" : "2.0"
    },
    "scene" : 0,
    "scenes" : [
        {
            "name" : "Scene",
            "nodes" : [
                0,
                1,
                2,
                3,
                4,
                6
            ]
        }
    ],
    "nodes" : [
        {
            "mesh" : 0,
            "name" : "Plane"
        },
        {
            "mesh" : 1,
            "name" : "Plane.001",
            "translation" : [
                0.9599999785423279,
                0.0003604516386985779,
                -0.8877151012420654
            ]
        },
        {
            "mesh" : 2,
            "name" : "Plane.002",
            "rotation" : [
                0,
                0,
                -0.7071067690849304,
                0.7071068286895752
            ],
            "scale" : [
                0.10000002384185791,
                0.10000002384185791,
                0.10000002384185791
            ],
            "translation" : [
                -0.10624998807907104,
                0.0003604516386985779,
                -0.6852830648422241
            ]
        },
        {
            "name" : "Plane.003",
            "rotation" : [
                0,
                0,
                -0.7071067690849304,
                0.7071068286895752
            ],
            "scale" : [
                0.10000002384185791,
                0.10000002384185791,
                0.10000002384185791
            ],
            "translation" : [
                -0.10624998807907104,
                0.0003604516386985779,
                -0.6852830648422241
            ]
        },
        {
            "name" : "Plane.004",
            "rotation" : [
                0,
                0,
                -0.7071067690849304,
                0.7071068286895752
            ],
            "scale" : [
                0.10000002384185791,
                0.10000002384185791,
                0.10000002384185791
            ],
            "translation" : [
                -0.10624998807907104,
                0.0003604516386985779,
                -0.6852830648422241
            ]
        },
        {
            "mesh" : 3,
            "name" : "Plane.006",
            "translation" : [
                0,
                0.01000000536441803,
                0
            ]
        },
        {
            "children" : [
                5
            ],
            "mesh" : 4,
            "name" : "Plane.005",
            "translation" : [
                0.9599999785423279,
                -0.10678701102733612,
                -0.8877151012420654
            ]
        }
    ],
    "materials" : [
        {
            "doubleSided" : true,
            "name" : "Silver",
            "pbrMetallicRoughness" : {
                "baseColorTexture" : {
                    "index" : 0
                },
                "metallicFactor" : 0.800000011920929,
                "roughnessFactor" : 0.1599999964237213
            }
        },
        {
            "doubleSided" : true,
            "name" : "rubber",
            "pbrMetallicRoughness" : {
                "baseColorFactor" : [
                    0.05342911183834076,
                    0.05342911183834076,
                    0.05342911183834076,
                    1
                ],
                "metallicFactor" : 0,
                "roughnessFactor" : 0.7795275449752808
            }
        }
    ],
    "meshes" : [
        {
            "name" : "Plane",
            "primitives" : [
                {
                    "attributes" : {
                        "POSITION" : 0,
                        "NORMAL" : 1,
                        "TEXCOORD_0" : 2
                    },
                    "indices" : 3,
                    "material" : 0
                },
                {
                    "attributes" : {
                        "POSITION" : 4,
                        "NORMAL" : 5,
                        "TEXCOORD_0" : 6
                    },
                    "indices" : 7,
                    "material" : 1
                }
            ]
        },
        {
            "name" : "Plane.001",
            "primitives" : [
                {
                    "attributes" : {
                        "POSITION" : 8,
                        "NORMAL" : 9,
                        "TEXCOORD_0" : 10
                    },
                    "indices" : 11,
                    "material" : 0
                }
            ]
        },
        {
            "name" : "Plane.003",
            "primitives" : [
                {
                    "attributes" : {
                        "POSITION" : 12,
                        "NORMAL" : 13,
                        "TEXCOORD_0" : 14
                    },
                    "indices" : 15,
                    "material" : 0
                }
            ]
        },
        {
            "name" : "Plane.007",
            "primitives" : [
                {
                    "attributes" : {
                        "POSITION" : 16,
                        "NORMAL" : 17,
                        "TEXCOORD_0" : 18
                    },
                    "indices" : 19,
                    "material" : 0
                }
            ]
        },
        {
            "name" : "Plane.006",
            "primitives" : [
                {
                    "attributes" : {
                        "POSITION" : 20,
                        "NORMAL" : 21,
                        "TEXCOORD_0" : 22
                    },
                    "indices" : 23,
                    "material" : 0
                }
            ]
        }
    ],
    "textures" : [
        {
            "sampler" : 0,
            "source" : 0
        }
    ],
    "images" : [
        {
            "bufferView" : 4,
            "mimeType" : "image/jpeg",
            "name" : "brushed metal"
        }
    ],
    "accessors" : [
        {
            "bufferView" : 0,
            "componentType" : 5126,
            "count" : 456,
            "max" : [
                1.9199999570846558,
                0.04980580508708954,
                -0.01456987950950861
            ],
            "min" : [
                -5.968988324445146e-13,
                -0.04980580508708954,
                -1.7583858966827393
            ],
            "type" : "VEC3"
        },
        {
            "bufferView" : 1,
            "componentType" : 5126,
            "count" : 456,
            "type" : "VEC3"
        },
        {
            "bufferView" : 2,
            "componentType" : 5126,
            "count" : 456,
            "type" : "VEC2"
        },
        {
            "bufferView" : 3,
            "componentType" : 5123,
            "count" : 684,
            "type" : "SCALAR"
        },
        {
            "bufferView" : 5,
            "componentType" : 5126,
            "count" : 180,
            "max" : [
                1.9199999570846558,
                0.03999999910593033,
                -0.5492902994155884
            ],
            "min" : [
                0,
                -0.03999999910593033,
                -1.7583858966827393
            ],
            "type" : "VEC3"
        },
        {
            "bufferView" : 6,
            "componentType" : 5126,
            "count" : 180,
            "type" : "VEC3"
        },
        {
            "bufferView" : 7,
            "componentType" : 5126,
            "count" : 180,
            "type" : "VEC2"
        },
        {
            "bufferView" : 8,
            "componentType" : 5123,
            "count" : 324,
            "type" : "SCALAR"
        },
        {
            "bufferView" : 9,
            "componentType" : 5126,
            "count" : 768,
            "max" : [
                1.0662498474121094,
                0.3088519871234894,
                1.1631451845169067
            ],
            "min" : [
                -1.066249966621399,
                -0.3088519871234894,
                -0.9693951606750488
            ],
            "type" : "VEC3"
        },
        {
            "bufferView" : 10,
            "componentType" : 5126,
            "count" : 768,
            "type" : "VEC3"
        },
        {
            "bufferView" : 11,
            "componentType" : 5126,
            "count" : 768,
            "type" : "VEC2"
        },
        {
            "bufferView" : 12,
            "componentType" : 5123,
            "count" : 3096,
            "type" : "SCALAR"
        },
        {
            "bufferView" : 13,
            "componentType" : 5126,
            "count" : 468,
            "max" : [
                0.5000000596046448,
                3.774894707930798e-08,
                0.3000003695487976
            ],
            "min" : [
                -0.5,
                -0.6107945442199707,
                -0.2999997138977051
            ],
            "type" : "VEC3"
        },
        {
            "bufferView" : 14,
            "componentType" : 5126,
            "count" : 468,
            "type" : "VEC3"
        },
        {
            "bufferView" : 15,
            "componentType" : 5126,
            "count" : 468,
            "type" : "VEC2"
        },
        {
            "bufferView" : 16,
            "componentType" : 5123,
            "count" : 924,
            "type" : "SCALAR"
        },
        {
            "bufferView" : 17,
            "componentType" : 5126,
            "count" : 744,
            "max" : [
                1.386125087738037,
                0.2220556139945984,
                1.0662508010864258
            ],
            "min" : [
                1.186010479927063,
                0,
                -1.0662508010864258
            ],
            "type" : "VEC3"
        },
        {
            "bufferView" : 18,
            "componentType" : 5126,
            "count" : 744,
            "type" : "VEC3"
        },
        {
            "bufferView" : 19,
            "componentType" : 5126,
            "count" : 744,
            "type" : "VEC2"
        },
        {
            "bufferView" : 20,
            "componentType" : 5123,
            "count" : 2184,
            "type" : "SCALAR"
        },
        {
            "bufferView" : 21,
            "componentType" : 5126,
            "count" : 272,
            "max" : [
                1.3861249685287476,
                0.009999999776482582,
                1.4708387851715088
            ],
            "min" : [
                -1.3861249685287476,
                -3.830065153920259e-09,
                -1.2638628482818604
            ],
            "type" : "VEC3"
        },
        {
            "bufferView" : 22,
            "componentType" : 5126,
            "count" : 272,
            "type" : "VEC3"
        },
        {
            "bufferView" : 23,
            "componentType" : 5126,
            "count" : 272,
            "type" : "VEC2"
        },
        {
            "bufferView" : 24,
            "componentType" : 5123,
            "count" : 936,
            "type" : "SCALAR"
        }
    ],
    "bufferViews" : [
        {
            "buffer" : 0,
            "byteLength" : 5472,
            "byteOffset" : 0
        },
        {
            "buffer" : 0,
            "byteLength" : 5472,
            "byteOffset" : 5472
        },
        {
            "buffer" : 0,
            "byteLength" : 3648,
            "byteOffset" : 10944
        },
        {
            "buffer" : 0,
            "byteLength" : 1368,
            "byteOffset" : 14592
        },
        {
            "buffer" : 0,
            "byteLength" : 2570,
            "byteOffset" : 15960
        },
        {
            "buffer" : 0,
            "byteLength" : 2160,
            "byteOffset" : 18532
        },
        {
            "buffer" : 0,
            "byteLength" : 2160,
            "byteOffset" : 20692
        },
        {
            "buffer" : 0,
            "byteLength" : 1440,
            "byteOffset" : 22852
        },
        {
            "buffer" : 0,
            "byteLength" : 648,
            "byteOffset" : 24292
        },
        {
            "buffer" : 0,
            "byteLength" : 9216,
            "byteOffset" : 24940
        },
        {
            "buffer" : 0,
            "byteLength" : 9216,
            "byteOffset" : 34156
        },
        {
            "buffer" : 0,
            "byteLength" : 6144,
            "byteOffset" : 43372
        },
        {
            "buffer" : 0,
            "byteLength" : 6192,
            "byteOffset" : 49516
        },
        {
            "buffer" : 0,
            "byteLength" : 5616,
            "byteOffset" : 55708
        },
        {
            "buffer" : 0,
            "byteLength" : 5616,
            "byteOffset" : 61324
        },
        {
            "buffer" : 0,
            "byteLength" : 3744,
            "byteOffset" : 66940
        },
        {
            "buffer" : 0,
            "byteLength" : 1848,
            "byteOffset" : 70684
        },
        {
            "buffer" : 0,
            "byteLength" : 8928,
            "byteOffset" : 72532
        },
        {
            "buffer" : 0,
            "byteLength" : 8928,
            "byteOffset" : 81460
        },
        {
            "buffer" : 0,
            "byteLength" : 5952,
            "byteOffset" : 90388
        },
        {
            "buffer" : 0,
            "byteLength" : 4368,
            "byteOffset" : 96340
        },
        {
            "buffer" : 0,
            "byteLength" : 3264,
            "byteOffset" : 100708
        },
        {
            "buffer" : 0,
            "byteLength" : 3264,
            "byteOffset" : 103972
        },
        {
            "buffer" : 0,
            "byteLength" : 2176,
            "byteOffset" : 107236
        },
        {
            "buffer" : 0,
            "byteLength" : 1872,
            "byteOffset" : 109412
        }
    ],
    "samplers" : [
        {
            "magFilter" : 9729,
            "minFilter" : 9987
        }
    ],
    "buffers" : [
        {
            "byteLength" : 111284,
            "uri" : "data:application/octet-stream;base64,"
        }
    ]
}
